<svg width="792" height="355" viewBox="0 0 792 355" fill="none" xmlns="http://www.w3.org/2000/svg">
<path d="M283.155 26.597H282.115V59.013H283.155V26.597Z" fill="url(#paint0_radial_1_4)"/>
<path d="M232.866 0H231.826V32.416H232.866V0Z" fill="url(#paint1_radial_1_4)"/>
<path d="M232.866 5.89899H231.826V7.61198H232.866V5.89899Z" fill="url(#paint2_linear_1_4)"/>
<path d="M302.267 40.998H301.227V59.013H302.267V40.998Z" fill="url(#paint3_radial_1_4)"/>
<path d="M246.149 111.548H236.781C212.642 111.548 192.69 129.737 189.864 153.12H182.478L182.581 157.072H178.017L180.072 169.086H182.894L184.018 212.166L179.364 212.328L177.51 217.743L171.01 217.583L164.865 322.986L164.183 334.681L161.157 334.583L156.755 348.063H238.929L236.282 337.01L231.429 336.853L221.689 218.829L218.49 218.75L218.486 218.705L216.654 218.672L213.586 211.137L209.074 211.294L209.568 186.26L209.907 169.084H211.847L213.27 157.07H210.144L210.197 154.363H210.222V153.118H204.479C207.188 137.738 220.638 126.011 236.782 126.011H246.15C266.469 126.011 283.009 142.501 283.103 162.794L277.156 280.425C277.147 280.578 277.147 280.731 277.147 280.884H279.291H283.001H291.62L297.559 163.338L297.567 162.972C297.567 134.615 274.5 111.548 246.149 111.548Z" fill="url(#paint4_linear_1_4)"/>
<path d="M586.924 218.117L586.933 217.709C586.933 215.242 586.759 212.816 586.455 210.43L586.473 210.426L586.342 209.537C586.299 209.236 586.257 208.935 586.209 208.635L586.14 208.166L587.608 207.742L587.43 206.831L585.948 207.181C584.68 200.381 582.219 193.997 578.773 188.264L578.778 188.261L578.7 188.138C578.543 187.879 578.377 187.626 578.216 187.37L577.487 186.212L578.906 185.106L577.628 183.376L576.31 184.525C572.054 178.552 566.687 173.43 560.508 169.458L560.517 169.445L559.853 169.038C559.537 168.841 559.22 168.645 558.899 168.453L558.424 168.162L559.577 166.184L557.237 165.631L556.48 167.088C548.461 162.814 539.318 160.381 529.615 160.381H528.837H527.365L527.402 159.436H525.398L525.429 160.381H519.171C511.663 160.381 504.522 161.97 498.052 164.812L496.795 162.984L495.539 163.856L496.608 165.459L496.47 165.528C496.284 165.617 496.102 165.712 495.918 165.804L494.845 166.34L494.853 166.351C486.653 170.636 479.72 177.012 474.757 184.771L472.084 183.772L471.6 185.538L473.787 186.341L473.777 186.337L473.289 187.207C473.098 187.544 472.904 187.879 472.72 188.221L472.598 188.439L472.607 188.442C471.771 190.014 471.017 191.635 470.341 193.296L422.251 193.379L417.419 197.512H417.444L406.739 197.389L403.939 201.056L467.506 202.699L397.085 200.878L397.267 203.833L388.934 203.69L390.477 208.195L393.498 208.224L397.984 215.48L405.76 341.754L406.324 350.91L500.736 350.303L500.738 350.464H501.924L501.923 350.295L514.792 350.212L514.78 350.464H515.847L515.861 350.205L550.416 349.983L560.19 209.801L566.015 209.856L567.964 206.773L560.411 206.643L560.518 205.104L483.988 203.125L554.642 204.951L552.591 199.062L543.914 198.962L538.086 193.177L488.458 193.263C488.568 193.093 488.673 192.921 488.785 192.753L488.974 192.477C489.077 192.327 489.186 192.181 489.291 192.032L490.582 192.506L491.214 190.925L490.353 190.603C494.328 185.518 499.614 181.51 505.701 179.088L506.508 180.298L508.125 179.459L507.431 178.45C511.119 177.196 515.065 176.505 519.172 176.505H525.95L525.98 177.439H526.691L526.728 176.505H528.007H529.615C536.64 176.505 543.258 178.276 549.051 181.39L548.4 182.644L549.348 183.731L550.299 182.099C550.424 182.172 550.552 182.241 550.676 182.315L551.117 182.582C556.312 185.776 560.743 190.091 564.082 195.185L563.011 196.119L563.633 197.013L564.716 196.169C564.725 196.183 564.734 196.196 564.742 196.21L564.837 196.369C567.496 200.743 569.359 205.65 570.235 210.887L569.392 211.086L569.606 212.945L570.491 212.689C570.509 212.838 570.533 212.986 570.55 213.135L570.588 213.487C570.723 214.811 570.799 216.153 570.806 217.51L569.974 233.964L568.051 233.885L567.824 235.871L569.874 235.937L569.845 236.503L568.652 260.09L567.125 260.024L566.898 262.01L568.552 262.066L567.207 288.661L567.127 290.245L565.906 314.384H563.809V315.968H565.826L565.804 316.405L564.674 338.744L563.237 338.682L563.01 340.668L564.574 340.721L564.174 348.639C564.165 348.81 564.165 348.98 564.165 349.151H566.555H570.69H580.298L580.696 341.268L581.663 341.301V339.483L580.788 339.445L581.851 318.414L581.93 316.846L581.974 315.969H583.252V314.385H582.054L583.14 292.885L583.163 292.424L583.273 290.246H584.635V288.662H583.353L584.651 262.976L584.669 262.613L585.549 262.643V260.825L584.761 260.791L585.99 236.457L587.422 236.503V234.685L586.082 234.63L586.924 218.117ZM395.047 208.239L397.539 208.263L397.869 213.628L395.047 208.239Z" fill="url(#paint5_linear_1_4)"/>
<path d="M563.398 209.831L559.802 215.369L559.727 216.436L564.406 209.856L563.398 209.831Z" fill="url(#paint6_linear_1_4)"/>
<path d="M635.489 48.092L635.363 48.899L635.625 47.216H598.322L599.922 58.248L598.894 58.23L600.151 62.848H604.921L603.94 78.85H596.702L598.441 90.84L599.022 90.85L599.125 90.852L598.193 80.713L599.507 80.667L600.989 90.884L597.324 90.82L598.691 95.839H602.9L602.866 96.392L602.781 97.785L601.336 121.347H594.942L596.832 133.337L595.617 133.318L597.102 138.337H600.294L598.815 162.449H593.026L595.08 174.44L595.767 174.45L595.888 174.452L594.787 164.313L596.339 164.267L598.08 174.428L598.077 174.484L593.76 174.42L595.375 179.439H597.774L597.761 179.646L597.708 180.509L596.2 205.104L596.095 206.813H589.065L591.459 218.803L592.259 218.813L592.401 218.815L591.118 208.676L592.927 208.63L594.967 218.847L589.92 218.783L591.802 223.802H595.054L594.901 226.302L592.911 258.787H584.449L587.239 270.777L588.172 270.787H588.177L585.446 270.757L587.639 275.776H591.87L588.086 337.539L585.138 337.427L581.381 350.907H651.508L649.249 339.854L645.551 339.714L642.011 283.161L641.573 275.775H645.849L647.322 273.298L651.507 350.906H656.203L635.625 47.216L635.489 48.092ZM624.897 58.683L624.957 57.839V58.684L624.897 58.683ZM602.489 58.292L601.764 49.816L607.661 49.79L608.267 58.393H608.61L608.767 58.402L602.489 58.292ZM608.896 49.785L609.174 49.784H609.109L609.717 58.418L608.767 58.402L608.896 49.785ZM610.027 49.78L624.614 49.716V58.678L610.027 58.424V49.78ZM600.902 48.888L602.265 58.288L600.55 58.258L599.692 48.93L600.902 48.888ZM624.957 58.684H625.27H625.432L626.087 49.71L633.582 49.677L632.204 58.811L624.957 58.684ZM634.096 48.742L634.787 48.74L633.454 58.832L632.527 58.816L634.096 48.742ZM600.457 58.257H600.481L600.254 58.253L600.457 58.257ZM633.529 62.847L635.008 58.859L633.813 58.838L635.282 49.415V50.092L636.833 78.849H629.214L628.212 62.847H633.529ZM641.636 219.438L640.248 219.42L642.596 208.471L643.63 208.469L641.636 219.438ZM599.862 133.386L599.006 124.173L601.161 124.164L600.595 133.397L599.862 133.386ZM638.015 219.392L637.396 209.501L641.828 209.487L639.766 219.414L638.015 219.392ZM635.238 175.032L634.619 165.137L638.301 165.123L636.531 175.05L635.238 175.032ZM638.96 164.107L639.847 164.105L638.136 175.074L636.945 175.056L638.96 164.107ZM632.663 133.912L632.045 124.04L636.595 124.022L634.967 133.949L632.663 133.912ZM637.202 123.005L638.018 123.003L636.443 133.972L635.348 133.954L637.202 123.005ZM630 91.39L629.384 81.549L635.027 81.524L633.529 91.452L630 91.39ZM635.584 80.508L636.335 80.506L634.886 91.475L633.878 91.457L635.584 80.508ZM597.987 123.164L599.598 133.382L597.572 133.349L596.559 123.21L597.987 123.164ZM592.735 261.607L592.17 270.831L591.713 270.826L590.449 261.613L592.735 261.607ZM640.65 261.476L645.94 261.462L643.536 271.389L641.269 271.364L640.65 261.476ZM646.663 261.131L646.913 265.759L645.715 271.413L644.098 271.395L646.663 261.131ZM640.482 258.787L638.769 231.424L638.505 227.201L638.292 223.802H641.749L643.962 219.467L642.176 219.444L643.966 211.099L646.538 258.787H640.482ZM637.228 206.812L635.514 179.438H638.232L640.131 175.103L638.596 175.08H638.599L640.924 162.448H634.451L633.976 154.861L633.296 144L633.203 142.52L632.941 138.337H636.533L638.28 134.002L636.868 133.979H636.871L639.01 121.347H631.878L630.28 95.839H634.97L636.577 91.504L635.28 91.481L636.941 80.817L643.735 206.811H637.228V206.812ZM600.442 81.676L603.766 81.661L603.198 90.922L601.229 90.888L600.442 81.676ZM597.461 133.348H597.471L597.422 133.347L597.461 133.348ZM597.444 165.275L598.64 165.27L598.188 172.638L597.444 165.275ZM594.214 209.639L595.92 209.634L595.355 218.853L595.299 218.852L594.214 209.639ZM586.838 260.65L588.946 260.604L591.324 270.821L588.334 270.789L586.838 260.65ZM646.344 271.42L647.063 268.543L647.219 271.43L646.344 271.42Z" fill="url(#paint7_linear_1_4)"/>
<path d="M612.802 244.594C612.802 236.143 605.893 229.322 597.443 229.431L68.285 235.719C53.512 235.909 41.635 247.939 41.635 262.714H63.451C63.104 253.006 70.817 244.917 80.53 244.8L593.458 239.125C596.505 239.088 598.994 241.548 598.994 244.595H612.802V244.594Z" fill="url(#paint8_linear_1_4)"/>
<path d="M571.548 347.909L569.333 268.326L588.388 255.179H623.328L643.217 268.999L640.486 348.469L571.548 347.909Z" fill="url(#paint9_linear_1_4)"/>
<path d="M570.771 270.725L573.638 344.447L581.344 344.405L579.552 270.725L589.408 258.173H622.919L588.512 256.341L570.771 270.725Z" fill="#FFFFA4"/>
<path opacity="0.37" d="M620.411 270.22H641.019L637.344 346.431H620.385L620.411 270.22Z" fill="#C94E6C"/>
<path d="M588.388 255.179L592.216 243.868H620.386L623.328 255.179H588.388Z" fill="url(#paint10_linear_1_4)"/>
<path opacity="0.81" d="M590.483 254.214L592.813 245.868H598.816V253.693L590.483 254.214Z" fill="white"/>
<path d="M643.217 268.999L569.333 268.326L569.59 277.558L643.217 277.246V268.999Z" fill="url(#paint11_linear_1_4)"/>
<path opacity="0.1" d="M571.548 347.909C571.548 347.909 612.432 345.155 625.384 332.409C641.02 317.021 642.934 277.246 642.934 277.246L640.486 348.469L571.548 347.909Z" fill="#A2004F"/>
<path opacity="0.81" d="M570.46 276.519L570.074 269.221H642.342L579.254 269.85L579.442 276.579L570.46 276.519Z" fill="white"/>
<path opacity="0.37" d="M642.586 287.352L569.671 280.493L569.59 277.558L642.933 277.246L642.586 287.352Z" fill="#C94E6C"/>
<path d="M22.374 348.295L20.427 278.346L37.175 266.791H67.885L85.367 278.938L82.966 348.787L22.374 348.295Z" fill="url(#paint12_linear_1_4)"/>
<path d="M21.691 280.455L24.211 345.252L30.984 345.216L29.409 280.455L38.072 269.423H67.527L37.285 267.813L21.691 280.455Z" fill="#FFFFA4"/>
<path opacity="0.37" d="M65.322 280.012H83.435L80.205 346.996H65.299L65.322 280.012Z" fill="#C94E6C"/>
<path d="M37.175 266.791L40.54 256.85H65.3L67.885 266.791H37.175Z" fill="url(#paint13_linear_1_4)"/>
<path opacity="0.81" d="M39.017 265.943L41.065 258.608H46.342V265.485L39.017 265.943Z" fill="white"/>
<path d="M85.367 278.938L20.427 278.346L20.653 286.461L85.367 286.187V278.938Z" fill="url(#paint14_linear_1_4)"/>
<path opacity="0.1" d="M22.374 348.295C22.374 348.295 58.309 345.874 69.692 334.671C83.435 321.146 85.117 286.186 85.117 286.186L82.966 348.786L22.374 348.295Z" fill="#A2004F"/>
<path opacity="0.81" d="M21.418 285.548L21.079 279.134L84.598 280.012L29.172 280.554L29.313 285.601L21.418 285.548Z" fill="white"/>
<path opacity="0.37" d="M84.812 295.07L20.725 289.041L20.653 286.461L85.117 286.187L84.812 295.07Z" fill="#C94E6C"/>
<path d="M511.027 25.234H509.987V57.65H511.027V25.234Z" fill="url(#paint15_radial_1_4)"/>
<path d="M511.027 41.442H509.987V43.455H511.027V41.442Z" fill="url(#paint16_linear_1_4)"/>
<path d="M511.027 31.133H509.987V32.846H511.027V31.133Z" fill="url(#paint17_linear_1_4)"/>
<path d="M545.838 6.965H544.798V56.957H545.838V6.965Z" fill="url(#paint18_radial_1_4)"/>
<path d="M545.838 31.961H544.798V35.065H545.838V31.961Z" fill="url(#paint19_linear_1_4)"/>
<path d="M554.95 235.732L554.611 231.125L551.372 187.136L548.54 148.674L548.395 146.704L546.115 115.736L546.138 115.735L545.898 112.477H545.875L543.817 84.529L543.69 82.802L542.167 62.113V59.781L532.885 37.412L532.552 36.61L528.462 26.754L524.372 36.61L514.757 59.78V62.113L512.992 85.364L512.985 85.455L508.401 145.837L508.186 148.673L505.266 187.135L505.017 190.412L498.586 275.127H504.042L506.343 242.816L524.425 257.605L504.042 275.127H512.632L528.534 260.966L545.848 275.127H552.395L532.223 257.681L550.249 241.628L552.395 275.128H557.851L554.95 235.732ZM509.637 196.533L525.856 212.012L507.173 231.126L509.637 196.533ZM528.845 214.863L545.885 231.125H511.797L528.845 214.863ZM512.631 154.484L526.094 169.269L510.306 187.136L512.631 154.484ZM528.837 172.282L542.363 187.136H516.793L528.837 172.282ZM546.642 185.327L531.582 168.897L544.564 152.886L546.642 185.327ZM549.454 229.224L531.966 211.887L547.4 197.164L549.454 229.224ZM544.293 148.674L528.955 166.032L513.045 148.674H544.293ZM517.215 90.1L526.428 100.102L515.692 111.484L517.215 90.1ZM518.98 65.318L526.836 72.952L517.857 81.105L518.98 65.318ZM540.02 81.967L530.798 72.653L538.914 64.706L540.02 81.967ZM538.749 62.134L529.078 70.915L520.363 62.113H538.748L538.749 62.134ZM528.671 74.736L536.913 82.746L520.63 82.61L528.671 74.736ZM541.974 112.477L530.843 100.135L540.526 89.864L541.974 112.477ZM537.828 112.477H519.208L528.626 102.487L537.828 112.477ZM514.93 122.196L525.711 132.616L513.575 144.997L513.308 144.984L514.93 122.196ZM528.529 135.339L539.854 146.285L519.492 145.287L528.529 135.339ZM543.855 146.481L530.865 132.767L542.457 120.006L544.154 146.496L543.855 146.481ZM542.188 115.807L528.26 130.016L515.344 116.381L515.35 116.295L542.188 115.807ZM535.126 51.249L530.132 44.452L532.099 41.691L535.126 51.249ZM528.419 30.069L531.083 38.483L528.329 41.998L525.791 38.544L528.419 30.069ZM526.794 43.958L522.357 49.621L524.893 41.442L526.794 43.958ZM528.692 46.471L537.163 57.684L537.827 59.781H519.207L528.692 46.471ZM540.221 85.101L540.244 85.456L528.671 97.726L517.551 85.397L540.221 85.101ZM510.306 190.413H546.967L528.925 208.872L510.306 190.413L510.035 190.944L510.073 190.413H510.306ZM549.871 235.732L528.292 254.281L506.846 235.732H549.871Z" fill="url(#paint20_radial_1_4)"/>
<path d="M470.891 348.729L491.863 275.128H563.145L580.383 349.048L470.891 348.729Z" fill="url(#paint21_linear_1_4)"/>
<path d="M494.319 276.592L472.911 348.094H486.799L505.368 276.592H494.319Z" fill="#FFFFA4"/>
<path opacity="0.37" d="M545.187 276.592L556.776 348.094H577.441L559.231 276.592H545.187Z" fill="#860E37"/>
<path d="M483.69 303.812H569.834L575.27 327.126H477.046L483.69 303.812Z" fill="url(#paint22_linear_1_4)"/>
<path opacity="0.53" d="M480.68 326.202L486.895 304.546H498.328L492.605 326.202H480.68Z" fill="white"/>
<path d="M483.69 303.812H569.834L570.01 304.569L483.639 303.991L483.69 303.812Z" fill="#FFFFA4"/>
<path d="M559.422 235.732L559.026 231.125L555.245 187.136L551.939 148.674L551.77 146.704L549.108 115.736L549.135 115.735L548.855 112.477H548.828L546.426 84.529L546.278 82.802L544.5 62.113V59.781L533.665 37.412L533.277 36.61L528.503 26.754L523.729 36.61L512.503 59.781V62.114L510.443 85.365L510.435 85.456L505.084 145.838L504.833 148.674L501.425 187.136L501.135 190.413L493.628 275.128H499.996L502.681 242.817L523.788 257.606L499.996 275.128H510.022L528.584 260.967L548.795 275.128H556.438L532.893 257.681L553.934 241.628L556.438 275.128H562.807L559.422 235.732ZM506.529 196.533L525.462 212.012L503.654 231.126L506.529 196.533ZM528.95 214.863L548.841 231.125H509.05L528.95 214.863ZM510.024 154.484L525.739 169.269L507.31 187.136L510.024 154.484ZM528.941 172.282L544.73 187.136H514.882L528.941 172.282ZM549.724 185.327L532.145 168.897L547.298 152.886L549.724 185.327ZM553.006 229.224L532.593 211.887L550.609 197.164L553.006 229.224ZM546.982 148.674L529.078 166.032L510.506 148.674H546.982ZM515.375 90.1L526.13 100.102L513.598 111.484L515.375 90.1ZM517.434 65.318L526.604 72.952L516.122 81.105L517.434 65.318ZM541.994 81.967L531.23 72.653L540.704 64.706L541.994 81.967ZM540.511 62.134L529.222 70.915L519.049 62.113H540.51L540.511 62.134ZM528.747 74.736L538.368 82.746L519.36 82.61L528.747 74.736ZM544.276 112.477L531.282 100.135L542.585 89.864L544.276 112.477ZM539.435 112.477H517.701L528.694 102.487L539.435 112.477ZM512.707 122.196L525.292 132.616L511.125 144.997L510.813 144.984L512.707 122.196ZM528.581 135.339L541.801 146.285L518.033 145.287L528.581 135.339ZM546.471 146.481L531.308 132.767L544.839 120.006L546.82 146.496L546.471 146.481ZM544.525 115.807L528.267 130.016L513.19 116.381L513.197 116.295L544.525 115.807ZM536.282 51.249L530.452 44.452L532.749 41.691L536.282 51.249ZM528.453 30.069L531.563 38.483L528.348 41.998L525.386 38.544L528.453 30.069ZM526.556 43.958L521.377 49.621L524.337 41.442L526.556 43.958ZM528.772 46.471L538.66 57.684L539.435 59.781H517.701L528.772 46.471ZM542.229 85.101L542.255 85.456L528.745 97.726L515.765 85.397L542.229 85.101ZM507.31 190.413H550.104L529.044 208.872L507.31 190.413L506.994 190.944L507.038 190.413H507.31ZM553.493 235.732L528.305 254.281L503.271 235.732H553.493Z" fill="url(#paint23_linear_1_4)"/>
<path d="M513.597 59.781L527.811 29.179L516.122 59.781L498.585 273.839L494.664 275.128L513.597 59.781Z" fill="#FFFFA4"/>
<path d="M508.744 56.957L510.506 70.916H546.82L548.336 56.957H508.744Z" fill="url(#paint24_linear_1_4)"/>
<path d="M509.588 57.571L511.237 70.094H518.64L517.309 57.571H509.588Z" fill="#FFFFA4"/>
<path opacity="0.37" d="M541.249 57.571L539.259 70.094L510.457 70.526L510.506 70.916H545.256L547.031 57.571H541.249Z" fill="#860E37"/>
<path d="M232.243 162.974L232.234 163.34L226.295 280.886H211.822C211.822 280.733 211.822 280.58 211.83 280.427L217.778 162.796C217.684 142.503 201.144 126.013 180.825 126.013H171.457C153.368 126.013 138.648 140.733 138.648 158.822V172.64C138.648 176.639 135.406 179.872 131.416 179.872C127.426 179.872 124.184 176.639 124.184 172.64V158.822C124.184 132.76 145.387 111.548 171.458 111.548H180.826C209.176 111.548 232.243 134.615 232.243 162.974Z" fill="url(#paint25_linear_1_4)"/>
<g opacity="0.55">
<path d="M130.139 174.51V161.447C130.139 136.809 150.184 116.764 174.821 116.764H183.675C196.223 116.764 207.674 121.544 216.306 129.377C207.407 119.571 194.567 113.403 180.313 113.403H171.459C146.821 113.403 126.777 133.448 126.777 158.086V171.149C126.777 173.907 128.414 176.277 130.765 177.358C130.367 176.489 130.139 175.527 130.139 174.51Z" fill="url(#paint26_linear_1_4)"/>
<path d="M223.471 166.301L217.677 280.886H213.967C213.958 280.716 213.958 280.546 213.967 280.376L219.915 162.745C219.872 153.522 216.426 145.098 210.785 138.64C218.51 145.387 223.42 155.274 223.471 166.301Z" fill="url(#paint27_linear_1_4)"/>
</g>
<path d="M143.52 223.021H118.978L117.155 153.119H144.898L143.52 223.021Z" fill="url(#paint28_linear_1_4)"/>
<path d="M118.984 173.219L124.156 175.828L123.206 211.138L119.63 211.541L118.984 173.219Z" fill="white"/>
<path opacity="0.15" d="M118.392 200.548C118.392 200.548 134.919 197.149 144.397 178.572L144.584 169.085H117.571L118.392 200.548Z" fill="url(#paint29_linear_1_4)"/>
<path d="M98.154 346.79L105.687 217.583L156.366 218.829L166.884 346.287L98.154 346.79Z" fill="url(#paint30_linear_1_4)"/>
<path d="M112.694 157.071L114.749 169.086H146.524L147.947 157.071H112.694Z" fill="url(#paint31_linear_1_4)"/>
<path d="M112.187 217.743L114.041 212.328L148.264 211.138L151.345 218.706L112.187 217.743Z" fill="url(#paint32_linear_1_4)"/>
<path d="M115.362 168.414L113.583 158.336L146.721 157.565L146.129 160.885L145.477 158.751L116.251 163.553L115.362 168.414Z" fill="white"/>
<path d="M149.844 218.351L147.433 212.145L114.532 212.816L112.99 217.583L114.117 216.135L146.781 213.112L149.844 218.351Z" fill="white"/>
<path opacity="0.36" d="M117.635 171.529L142.097 185.368L142.096 211.353L143.751 211.295L144.584 169.086H117.571L117.635 171.529Z" fill="#093668"/>
<path d="M117.248 156.707L117.155 153.119H144.898V154.364L118.444 154.009L117.248 156.707Z" fill="white"/>
<path d="M100.363 344.659L106.845 219.046L154.428 221.171L156.799 242.625L152.077 223.754L109.058 246.412L100.363 344.659Z" fill="white"/>
<path opacity="0.43" d="M146.543 218.588L156.799 344.659L98.154 346.79L164.86 346.302L153.163 218.706L146.543 218.588Z" fill="#9D1146"/>
<path opacity="0.15" d="M99.541 322.986C99.541 322.986 140.44 320.505 160.08 263.845L156.365 218.829L105.686 217.583L99.541 322.986Z" fill="url(#paint33_linear_1_4)"/>
<path d="M91.432 348.063L95.834 334.583L170.959 337.01L173.606 348.063H91.432Z" fill="url(#paint34_linear_1_4)"/>
<path d="M92.752 347.137L96.568 335.453L169.204 337.785L106.693 336.955L104.051 347.137H92.752Z" fill="white"/>
<path opacity="0.2" d="M169.938 338.456L172.432 348.061L91.432 348.063L170.744 347.119L169.938 338.456Z" fill="#A2004F"/>
<path d="M219.024 350.37L232.897 24.12H247.52L251.961 350.733L219.024 350.37Z" fill="url(#paint35_linear_1_4)"/>
<path d="M231.496 57.063H247.968L248.357 85.666L230.346 84.102L231.496 57.063Z" fill="url(#paint36_linear_1_4)"/>
<path d="M230.142 88.911H248.401L248.357 92.532L229.98 92.71L230.142 88.911Z" fill="url(#paint37_linear_1_4)"/>
<path opacity="0.55" d="M245.862 25.547H233.887L221.912 349.133H230.528L237.326 26.26L245.862 25.547Z" fill="url(#paint38_linear_1_4)"/>
<path d="M228.552 32.115L229.98 37.745H249.182L250.96 33.129L228.552 32.115Z" fill="url(#paint39_linear_1_4)"/>
<path opacity="0.55" d="M230.686 36.92L229.698 32.416L249.775 33.692L248.357 36.582L230.686 36.92Z" fill="url(#paint40_linear_1_4)"/>
<path d="M493.653 217.709L493.643 218.117L487.022 349.152H470.888C470.888 348.981 470.888 348.811 470.897 348.64L477.527 217.51C477.423 194.888 458.984 176.506 436.334 176.506H425.892C405.727 176.506 389.318 192.915 389.318 213.08V228.484C389.318 232.942 385.704 236.546 381.256 236.546C376.808 236.546 373.194 232.942 373.194 228.484V213.08C373.194 184.027 396.831 160.381 425.893 160.381H436.336C467.939 160.382 493.653 186.096 493.653 217.709Z" fill="url(#paint41_linear_1_4)"/>
<g opacity="0.55">
<path d="M379.831 230.569V216.007C379.831 188.541 402.176 166.196 429.641 166.196H439.511C453.499 166.196 466.264 171.524 475.887 180.257C465.967 169.325 451.654 162.449 435.764 162.449H425.894C398.429 162.449 376.084 184.794 376.084 212.26V226.822C376.084 229.896 377.908 232.539 380.53 233.744C380.086 232.776 379.831 231.703 379.831 230.569Z" fill="url(#paint42_linear_1_4)"/>
<path d="M483.874 221.418L477.415 349.153H473.28C473.271 348.963 473.271 348.774 473.28 348.584L479.91 217.454C479.863 207.172 476.021 197.782 469.733 190.583C478.344 198.104 483.817 209.125 483.874 221.418Z" fill="url(#paint43_linear_1_4)"/>
</g>
<path d="M313.044 350.909L303.805 200.879L467.237 205.104L457.136 349.982L313.044 350.909Z" fill="url(#paint44_linear_1_4)"/>
<path d="M457.136 349.982L457.614 343.119L312.48 341.753L313.044 350.909L457.136 349.982Z" fill="url(#paint45_linear_1_4)"/>
<path opacity="0.36" d="M303.805 200.879L305.062 221.293L466.252 219.235L467.237 205.104L303.805 200.879Z" fill="#093668"/>
<path opacity="0.55" d="M317.706 349.048L307.937 204.165L447.335 207.743L327.823 208.376L332.566 349.048H317.706Z" fill="url(#paint46_linear_1_4)"/>
<path opacity="0.36" d="M452.077 207.743L445.991 347.941L335.947 349.048H454.132L464.408 207.743H452.077Z" fill="#093668"/>
<path opacity="0.55" d="M335.964 208.501L339.206 346.105L344.224 345.373L342.129 208.3L335.964 208.501Z" fill="url(#paint47_linear_1_4)"/>
<path d="M300.218 208.224L304.704 215.48V213.845L301.759 208.224H300.218Z" fill="url(#paint48_linear_1_4)"/>
<path d="M470.117 209.831L466.521 215.369L466.447 216.436L471.126 209.856L470.117 209.831Z" fill="url(#paint49_linear_1_4)"/>
<path d="M382.518 209.002L383.627 218.62H384.259L385.168 209.002H382.518Z" fill="url(#paint50_linear_1_4)"/>
<path d="M435.319 209.502L432.475 218.97H433.186L437.455 209.522L435.319 209.502Z" fill="url(#paint51_linear_1_4)"/>
<path d="M332.566 208.293L336.129 215.48H336.992L334.779 208.551L332.566 208.293Z" fill="url(#paint52_linear_1_4)"/>
<path d="M295.654 203.69L297.197 208.196L472.734 209.856L474.683 206.773L295.654 203.69Z" fill="url(#paint53_linear_1_4)"/>
<path opacity="0.55" d="M297.017 204.52L297.708 207.732L452.63 209.144L453.856 206.832L297.017 204.52Z" fill="url(#paint54_linear_1_4)"/>
<path d="M310.659 201.056L313.46 197.388L459.31 199.062L461.361 204.952L310.659 201.056Z" fill="url(#paint55_linear_1_4)"/>
<path d="M324.14 197.511L328.972 193.378L444.805 193.178L450.733 199.062L324.14 197.511Z" fill="url(#paint56_linear_1_4)"/>
<path d="M326.957 197.546L330.511 194.047L444.805 193.178L343.553 194.679L341.656 197.546H326.957Z" fill="white"/>
<path d="M312.43 200.879L314.208 197.94L458.559 199.659L328.219 199.062L326.957 200.879H312.43Z" fill="white"/>
<path d="M469.962 338.683L488.389 339.484V341.302L469.735 340.67L469.962 338.683Z" fill="url(#paint57_linear_1_4)"/>
<path d="M473.848 260.025L492.275 260.825V262.643L473.621 262.011L473.848 260.025Z" fill="url(#paint58_linear_1_4)"/>
<path d="M474.774 233.885L494.149 234.685V236.503L474.547 235.871L474.774 233.885Z" fill="url(#paint59_linear_1_4)"/>
<path d="M476.114 211.086L494.149 206.832L494.327 207.743L475.887 213.072L476.114 211.086Z" fill="url(#paint60_linear_1_4)"/>
<path d="M489.977 314.385H470.533V315.969H489.977V314.385Z" fill="url(#paint61_linear_1_4)"/>
<path d="M491.361 288.662H471.917V290.246H491.361V288.662Z" fill="url(#paint62_linear_1_4)"/>
<path d="M470.354 197.014L485.626 185.106L484.348 183.377L469.732 196.12L470.354 197.014Z" fill="url(#paint63_linear_1_4)"/>
<path d="M466.297 166.185L456.069 183.732L455.12 182.645L463.957 165.632L466.297 166.185Z" fill="url(#paint64_linear_1_4)"/>
<path d="M432.119 159.437L432.7 177.441H433.411L434.123 159.437H432.119Z" fill="url(#paint65_linear_1_4)"/>
<path d="M414.845 179.459L403.517 162.985L402.261 163.857L413.228 180.298L414.845 179.459Z" fill="url(#paint66_linear_1_4)"/>
<path d="M378.805 183.772L397.934 190.925L397.301 192.506L378.322 185.537L378.805 183.772Z" fill="url(#paint67_linear_1_4)"/>
<path opacity="0.36" d="M476.597 235.937L492.715 236.503L492.641 237.674L476.568 236.503L476.597 235.937Z" fill="#093668"/>
<path opacity="0.36" d="M475.276 262.058L491.395 262.613L491.309 264.33L475.216 263.256L475.276 262.058Z" fill="#093668"/>
<path opacity="0.36" d="M473.801 291.234L489.866 292.885L489.999 290.246H473.851L473.801 291.234Z" fill="#093668"/>
<path opacity="0.36" d="M472.55 315.969L472.484 317.282L488.576 318.414L488.7 315.969H472.55Z" fill="#093668"/>
<path opacity="0.36" d="M471.299 340.723V342.32L487.328 343.119V341.266L471.299 340.723Z" fill="#093668"/>
<path opacity="0.36" d="M477.225 212.685L492.859 208.167L493.192 210.426L477.346 213.814L477.225 212.685Z" fill="#093668"/>
<path opacity="0.36" d="M471.439 196.168L484.207 186.213L485.498 188.262L471.946 197.014L471.439 196.168Z" fill="#093668"/>
<path opacity="0.36" d="M457.025 182.091L458.172 182.785L467.237 169.446L465.144 168.162L457.025 182.091Z" fill="#093668"/>
<path opacity="0.36" d="M433.448 176.506H434.727L435.557 160.382H434.085L433.448 176.506Z" fill="#093668"/>
<path opacity="0.36" d="M412.415 179.08L403.33 165.46L401.566 166.34L411.732 179.36L412.415 179.08Z" fill="#093668"/>
<path opacity="0.36" d="M396.001 192.028L380.498 186.336L379.319 188.438L395.416 192.883L396.001 192.028Z" fill="#093668"/>
<path d="M422.458 327.452L408.501 326.966L408.429 316.645L422.955 317.018L422.458 327.452ZM423.001 316.065L408.422 315.584L408.35 305.272L423.498 305.633L423.001 316.065ZM423.543 304.68L408.342 304.214L408.27 293.885L424.04 294.247L423.543 304.68ZM424.086 293.294L408.263 292.827L408.191 282.499L424.583 282.866L424.086 293.294ZM424.629 281.913L408.184 281.44L408.112 271.113L425.126 271.483L424.629 281.913ZM425.171 270.529L408.105 270.052L408.033 259.726L425.669 260.096L425.171 270.529ZM425.714 259.142L408.025 258.666L407.953 248.341L426.211 248.71L425.714 259.142ZM426.257 247.755L407.946 247.279L407.874 236.955L426.754 237.324L426.257 247.755ZM426.8 236.367L407.867 235.892L407.795 225.569L427.296 225.95L426.8 236.367ZM427.838 214.586L427.342 224.997L407.788 224.506L407.719 214.586H427.838ZM408.58 338.36L408.508 328.028L422.412 328.404L421.915 338.837L408.58 338.36ZM427.191 203.411L425.808 205.932L428.249 205.974L427.889 213.52H407.712L407.642 203.471L404.718 203.412L403.335 205.6L405.785 205.783L407.459 347.548H408.645L408.589 339.42L421.871 339.79L421.501 347.548H422.568L430.116 203.471L427.191 203.411Z" fill="url(#paint68_linear_1_4)"/>
<path d="M130.29 251.841L130.297 252.144L135.221 349.602H147.221C147.221 349.475 147.221 349.348 147.214 349.221L142.283 251.692C142.361 234.867 156.075 221.195 172.921 221.195H180.688C195.686 221.195 207.89 233.399 207.89 248.397V259.854C207.89 263.17 210.578 265.85 213.886 265.85C217.195 265.85 219.882 263.169 219.882 259.854V248.397C219.882 226.789 202.302 209.202 180.687 209.202H172.92C149.415 209.203 130.29 228.328 130.29 251.841Z" fill="url(#paint69_linear_1_4)"/>
<g opacity="0.55">
<path d="M214.945 261.405V250.574C214.945 230.146 198.326 213.527 177.899 213.527H170.558C160.155 213.527 150.66 217.49 143.503 223.985C150.881 215.854 161.527 210.74 173.345 210.74H180.686C201.113 210.74 217.733 227.359 217.733 247.787V258.618C217.733 260.904 216.376 262.87 214.426 263.766C214.756 263.047 214.945 262.249 214.945 261.405Z" fill="url(#paint70_linear_1_4)"/>
<path d="M137.563 254.599L142.367 349.602H145.443C145.45 349.461 145.45 349.32 145.443 349.179L140.512 251.65C140.547 244.003 143.404 237.019 148.082 231.665C141.676 237.259 137.605 245.457 137.563 254.599Z" fill="url(#paint71_linear_1_4)"/>
</g>
<path d="M271.492 239.319L268.21 292.597L264.615 350.91L157.454 350.218L154.722 310.997L149.942 242.468L271.492 239.319Z" fill="url(#paint72_linear_1_4)"/>
<path opacity="0.15" d="M271.492 239.319L268.21 292.596C252.598 309.593 227.311 320.643 198.78 320.643C182.674 320.643 167.603 317.124 154.722 310.997L149.942 242.468L271.492 239.319Z" fill="url(#paint73_linear_1_4)"/>
<path d="M157.45 350.22L157.094 345.115L265.038 344.099L264.619 350.909L157.45 350.22Z" fill="url(#paint74_linear_1_4)"/>
<path opacity="0.36" d="M271.49 239.323L270.555 254.506L150.67 252.976L149.937 242.465L271.49 239.323Z" fill="#093668"/>
<path opacity="0.36" d="M161.212 244.428L165.739 348.702L247.585 349.525H159.684L152.041 244.428H161.212Z" fill="#093668"/>
<path d="M274.158 244.786L270.822 250.183V248.967L273.012 244.786H274.158Z" fill="url(#paint75_linear_1_4)"/>
<path d="M147.794 245.981L150.469 250.1L150.525 250.894L147.044 246L147.794 245.981Z" fill="url(#paint76_linear_1_4)"/>
<path d="M212.947 245.365L212.122 252.518H211.652L210.976 245.365H212.947Z" fill="url(#paint77_linear_1_4)"/>
<path d="M173.676 245.737L175.791 252.779H175.262L172.087 245.752L173.676 245.737Z" fill="url(#paint78_linear_1_4)"/>
<path d="M250.099 244.838L247.449 250.183H246.807L248.453 245.029L250.099 244.838Z" fill="url(#paint79_linear_1_4)"/>
<path d="M277.553 241.414L276.405 244.765L145.848 246L144.399 243.707L277.553 241.414Z" fill="url(#paint80_linear_1_4)"/>
<path opacity="0.55" d="M276.539 242.032L276.025 244.42L160.801 245.471L159.889 243.751L276.539 242.032Z" fill="url(#paint81_linear_1_4)"/>
<path d="M179.721 243.376L180.75 245.004L178.928 245.14L179.202 250.894H194.209L194.261 243.42L196.436 243.376L197.465 245.004L195.643 245.14L194.398 350.578H193.516L193.558 344.533L183.679 344.808L183.954 350.578H183.16L177.546 243.42L179.721 243.376ZM183.242 335.632L193.623 335.271L193.676 327.595L182.872 327.872L183.242 335.632ZM182.838 327.163L193.681 326.806L193.734 319.136L182.467 319.405L182.838 327.163ZM182.434 318.695L193.74 318.348L193.793 310.666L182.064 310.935L182.434 318.695ZM182.031 310.227L193.799 309.88L193.852 302.199L181.661 302.472L182.031 310.227ZM181.627 301.762L193.858 301.41L193.911 293.729L181.257 294.004L181.627 301.762ZM181.223 293.295L193.916 292.941L193.969 285.261L180.852 285.536L181.223 293.295ZM180.82 284.826L193.976 284.472L194.029 276.793L180.45 277.068L180.82 284.826ZM180.416 276.357L194.035 276.003L194.088 268.324L180.046 268.599L180.416 276.357ZM180.012 267.887L194.093 267.533L194.146 259.855L179.642 260.139L180.012 267.887ZM179.24 251.688L179.609 259.431L194.152 259.066L194.203 251.688H179.24ZM193.563 343.745L193.616 336.06L183.275 336.34L183.645 344.099L193.563 343.745Z" fill="url(#paint82_linear_1_4)"/>
<path d="M266.392 239.455L264.31 236.727L155.832 237.972L154.307 242.353L266.392 239.455Z" fill="url(#paint83_linear_1_4)"/>
<path d="M256.366 236.818L252.772 233.744L166.621 233.596L162.212 237.972L256.366 236.818Z" fill="url(#paint84_linear_1_4)"/>
<path d="M254.271 236.844L251.628 234.242L166.621 233.596L241.927 234.713L243.338 236.844H254.271Z" fill="white"/>
<path d="M265.075 239.323L263.753 237.137L156.391 238.416L253.332 237.972L254.271 239.323H265.075Z" fill="white"/>
<path d="M147.91 341.816L134.205 342.412V343.764L148.079 343.293L147.91 341.816Z" fill="url(#paint85_linear_1_4)"/>
<path d="M145.02 283.313L131.315 283.909V285.261L145.189 284.791L145.02 283.313Z" fill="url(#paint86_linear_1_4)"/>
<path d="M144.331 263.872L129.921 264.467V265.819L144.5 265.349L144.331 263.872Z" fill="url(#paint87_linear_1_4)"/>
<path d="M143.334 246.915L129.921 243.751L129.788 244.428L143.503 248.392L143.334 246.915Z" fill="url(#paint88_linear_1_4)"/>
<path d="M147.485 323.744H133.023V324.922H147.485V323.744Z" fill="url(#paint89_linear_1_4)"/>
<path d="M146.457 304.612H131.995V305.79H146.457V304.612Z" fill="url(#paint90_linear_1_4)"/>
<path d="M147.618 236.448L136.26 227.593L137.21 226.306L148.081 235.784L147.618 236.448Z" fill="url(#paint91_linear_1_4)"/>
<path d="M150.88 213.938L158.243 226.571L158.949 225.762L152.376 213.108L150.88 213.938Z" fill="url(#paint92_linear_1_4)"/>
<path d="M176.056 208.501L175.624 221.891H175.095L174.566 208.501H176.056Z" fill="url(#paint93_linear_1_4)"/>
<path d="M188.904 223.393L197.329 211.14L198.263 211.789L190.106 224.016L188.904 223.393Z" fill="url(#paint94_linear_1_4)"/>
<path d="M215.708 226.6L201.482 231.92L201.952 233.096L216.068 227.913L215.708 226.6Z" fill="url(#paint95_linear_1_4)"/>
<path opacity="0.36" d="M142.975 265.398L130.988 265.819L131.043 266.69L142.997 265.819L142.975 265.398Z" fill="#093668"/>
<path opacity="0.36" d="M143.958 284.826L131.969 285.239L132.033 286.516L144.003 285.717L143.958 284.826Z" fill="#093668"/>
<path opacity="0.36" d="M145.055 306.526L133.106 307.753L133.007 305.791H145.018L145.055 306.526Z" fill="#093668"/>
<path opacity="0.36" d="M145.985 324.922L146.034 325.899L134.066 326.741L133.974 324.922H145.985Z" fill="#093668"/>
<path opacity="0.36" d="M146.916 343.333V344.521L134.994 345.115V343.737L146.916 343.333Z" fill="#093668"/>
<path opacity="0.36" d="M142.509 248.104L130.88 244.744L130.632 246.424L142.418 248.944L142.509 248.104Z" fill="#093668"/>
<path opacity="0.36" d="M146.812 235.82L137.315 228.415L136.355 229.939L146.435 236.448L146.812 235.82Z" fill="#093668"/>
<path opacity="0.36" d="M157.532 225.35L156.679 225.866L149.937 215.945L151.494 214.99L157.532 225.35Z" fill="#093668"/>
<path opacity="0.36" d="M175.067 221.196H174.116L173.499 209.203H174.594L175.067 221.196Z" fill="#093668"/>
<path opacity="0.36" d="M190.711 223.11L197.468 212.981L198.78 213.635L191.219 223.319L190.711 223.11Z" fill="#093668"/>
<path opacity="0.36" d="M202.919 232.741L214.449 228.507L215.326 230.07L203.354 233.376L202.919 232.741Z" fill="#093668"/>
<path opacity="0.2" d="M313.444 341.302L315.572 350.907L246.447 350.909L314.132 349.964L313.444 341.302Z" fill="#A2004F"/>
<path d="M269.77 163.845L271.603 174.545L271.886 174.549L270.949 165.275L280.463 165.24H280.38L281.166 174.686H281.558V165.236L300.289 165.166V174.968H300.649L301.468 165.162L300.889 165.164L311.806 165.123L310.025 175.117H310.439L312.513 163.845H269.77Z" fill="url(#paint96_linear_1_4)"/>
<path d="M271.426 122.743L273.113 133.443L273.373 133.447L272.511 124.174L281.264 124.138H281.188L281.91 133.584H282.272V124.134L299.505 124.064V133.866H299.835L300.589 124.06L300.057 124.062L310.101 124.022L308.462 134.016H308.843L310.751 122.743H271.426Z" fill="url(#paint97_linear_1_4)"/>
<path d="M272.95 80.245L274.501 90.945L274.741 90.949L273.947 81.676L282.001 81.64L281.93 81.641L282.596 91.086H282.928V81.636L298.783 81.566V91.368H299.087L299.781 81.562L299.291 81.564L308.532 81.524L307.024 91.518H307.374L309.13 80.245H272.95Z" fill="url(#paint98_linear_1_4)"/>
<path d="M266.345 208.209L268.482 218.908L268.811 218.912L267.719 209.639L278.807 209.603L278.71 209.604L279.625 219.049H280.083V209.599L301.912 209.53V219.331H302.331L303.285 209.525L302.611 209.527L315.334 209.487L313.258 219.481H313.74L316.158 208.209H266.345Z" fill="url(#paint99_linear_1_4)"/>
<path d="M308.994 48.092L309.13 47.216L329.706 350.909H325.01L308.788 50.092V49.415L308.994 48.092Z" fill="url(#paint100_linear_1_4)"/>
<path d="M262.353 260.183L264.843 270.883L265.227 270.887L263.954 261.614L276.876 261.578L276.763 261.579L277.83 271.024H278.363V261.574L303.803 261.504V271.306H304.291L305.404 261.5L304.618 261.502L319.445 261.462L317.025 271.456H317.588L320.405 260.183H262.353Z" fill="url(#paint101_linear_1_4)"/>
<path d="M319.75 350.85L260.769 350.907L269.702 205.104L278.426 62.847H301.718L307.481 154.861L319.75 350.85Z" fill="url(#paint102_linear_1_4)"/>
<path opacity="0.55" d="M262.835 349.048L280.429 64.577H300.591L284.186 66.632L278.926 349.048H262.835Z" fill="url(#paint103_linear_1_4)"/>
<path opacity="0.2" d="M260.768 350.909L311.495 348.666L297.96 64.577H300.591L315.994 350.858L260.768 350.909Z" fill="#A2004F"/>
<path opacity="0.21" d="M307.481 154.861C296.519 175.273 283.768 192.507 269.703 205.103L278.426 62.847H301.718L307.481 154.861Z" fill="url(#paint104_linear_1_4)"/>
<path opacity="0.1" d="M260.768 350.909C260.768 350.909 313.19 338.703 313.19 246.062L319.75 350.851L260.768 350.909Z" fill="#A2004F"/>
<path opacity="0.55" d="M286.69 66.158L281.713 349.982H286.69L287.972 66.158H286.69Z" fill="url(#paint105_linear_1_4)"/>
<path d="M254.883 350.909L258.64 337.429L322.751 339.855L325.01 350.909H254.883Z" fill="url(#paint106_linear_1_4)"/>
<path d="M256.01 349.982L259.266 338.298L321.253 340.63L267.906 339.8L265.652 349.982H256.01Z" fill="white"/>
<path opacity="0.31" d="M265.372 275.777L265.184 278.849L315.514 283.163L315.075 275.777H265.372Z" fill="#A2004F"/>
<path d="M258.948 270.758L261.141 275.777H319.351L321.93 271.442L258.948 270.758Z" fill="url(#paint107_linear_1_4)"/>
<path opacity="0.55" d="M260.144 271.61L315.514 272.291L314.218 274.735L261.689 275.336L260.144 271.61Z" fill="url(#paint108_linear_1_4)"/>
<path d="M257.951 258.787L260.741 270.778L261.674 270.788L259.745 260.39L274.226 260.35L274.099 260.351L275.295 270.936H275.893V260.346L304.401 260.268V271.252H304.948L306.195 260.263L305.314 260.265L321.93 260.22L319.219 271.42H319.849L323.006 258.787H257.951Z" fill="url(#paint109_linear_1_4)"/>
<path d="M306.195 260.263L304.948 271.252H305.231L306.493 260.47L321.544 260.443L319.219 271.42L321.93 260.22L306.195 260.263Z" fill="url(#paint110_linear_1_4)"/>
<path d="M275.893 270.936V260.346L304.401 260.268L276.416 260.57L276.167 270.945L275.893 270.936Z" fill="url(#paint111_linear_1_4)"/>
<path d="M261.674 270.788L259.745 260.39L274.099 260.351L260.343 260.65L261.839 270.79L261.674 270.788Z" fill="url(#paint112_linear_1_4)"/>
<path opacity="0.55" d="M261.141 270.595L258.416 259.241L317.557 258.974L316.926 259.696L259.728 260.268L261.141 270.595Z" fill="url(#paint113_linear_1_4)"/>
<path d="M263.423 218.783L265.304 223.802H315.254L317.466 219.467L263.423 218.783Z" fill="url(#paint114_linear_1_4)"/>
<path opacity="0.55" d="M264.449 219.635L311.961 220.316L310.849 222.76L265.775 223.362L264.449 219.635Z" fill="url(#paint115_linear_1_4)"/>
<path d="M262.568 206.812L264.962 218.803L265.762 218.813L264.107 208.415L276.533 208.375L276.424 208.376L277.45 218.961H277.963V208.371L302.426 208.293V219.277H302.895L303.964 208.288L303.208 208.29L317.466 208.245L315.14 219.445H315.681L318.39 206.812H262.568Z" fill="url(#paint116_linear_1_4)"/>
<path d="M303.964 208.288L302.895 219.277H303.137L304.22 208.495L317.135 208.469L315.14 219.445L317.466 208.245L303.964 208.288Z" fill="url(#paint117_linear_1_4)"/>
<path d="M277.963 218.961V208.371L302.426 208.293L278.412 208.595L278.199 218.97L277.963 218.961Z" fill="url(#paint118_linear_1_4)"/>
<path d="M265.762 218.813L264.107 208.415L276.424 208.376L264.62 208.676L265.903 218.815L265.762 218.813Z" fill="url(#paint119_linear_1_4)"/>
<path opacity="0.55" d="M265.304 218.62L262.967 207.267L313.714 206.999L313.172 207.721L264.093 208.293L265.304 218.62Z" fill="url(#paint120_linear_1_4)"/>
<path d="M267.263 174.42L268.877 179.439H311.737L313.636 175.104L267.263 174.42Z" fill="url(#paint121_linear_1_4)"/>
<path opacity="0.55" d="M268.143 175.271L308.912 175.953L307.958 178.397L269.281 178.998L268.143 175.271Z" fill="url(#paint122_linear_1_4)"/>
<path d="M266.529 162.449L268.583 174.439L269.27 174.449L267.85 164.052L278.512 164.012H278.419L279.299 174.597H279.739V164.007L300.73 163.929V174.913H301.133L302.051 163.924L301.402 163.927L313.636 163.881L311.64 175.081H312.104L314.428 162.449H266.529Z" fill="url(#paint123_linear_1_4)"/>
<path d="M302.051 163.924L301.133 174.913H301.34L302.27 164.132L313.352 164.105L311.64 175.081L313.636 163.881L302.051 163.924Z" fill="url(#paint124_linear_1_4)"/>
<path d="M279.739 174.597V164.007L300.73 163.929L280.124 164.232L279.941 174.607L279.739 174.597Z" fill="url(#paint125_linear_1_4)"/>
<path d="M269.27 174.449L267.85 164.052L278.419 164.012L268.29 164.312L269.391 174.451L269.27 174.449Z" fill="url(#paint126_linear_1_4)"/>
<path opacity="0.55" d="M268.877 174.256L266.871 162.903L310.417 162.636L309.952 163.357L267.837 163.929L268.877 174.256Z" fill="url(#paint127_linear_1_4)"/>
<path d="M269.119 133.318L270.605 138.337H310.038L311.784 134.002L269.119 133.318Z" fill="url(#paint128_linear_1_4)"/>
<path opacity="0.55" d="M269.929 134.17L307.438 134.851L306.56 137.295L270.976 137.896L269.929 134.17Z" fill="url(#paint129_linear_1_4)"/>
<path d="M268.444 121.347L270.334 133.338L270.966 133.348L269.659 122.95L279.469 122.91L279.383 122.911L280.193 133.496H280.598V122.906L299.91 122.828V133.812H300.28L301.125 122.823L300.528 122.825L311.784 122.78L309.947 133.979H310.374L312.513 121.347H268.444Z" fill="url(#paint130_linear_1_4)"/>
<path d="M301.125 122.823L300.28 133.812H300.472L301.327 123.03L311.523 123.003L309.947 133.979L311.784 122.78L301.125 122.823Z" fill="url(#paint131_linear_1_4)"/>
<path d="M280.598 133.496V122.906L299.91 122.828L280.952 123.13L280.784 133.505L280.598 133.496Z" fill="url(#paint132_linear_1_4)"/>
<path d="M270.966 133.348L269.659 122.95L279.383 122.911L270.064 123.21L271.077 133.349L270.966 133.348Z" fill="url(#paint133_linear_1_4)"/>
<path opacity="0.55" d="M270.605 133.155L268.759 121.801L308.822 121.534L308.394 122.255L269.648 122.828L270.605 133.155Z" fill="url(#paint134_linear_1_4)"/>
<path d="M270.827 90.82L272.194 95.839H308.473L310.081 91.504L270.827 90.82Z" fill="url(#paint135_linear_1_4)"/>
<path opacity="0.55" d="M271.573 91.672L306.082 92.353L305.274 94.797L272.535 95.398L271.573 91.672Z" fill="url(#paint136_linear_1_4)"/>
<path d="M270.206 78.849L271.945 90.84L272.526 90.85L271.324 80.452L280.349 80.412L280.27 80.413L281.016 90.998H281.388V80.408L299.156 80.33V91.314H299.497L300.274 80.325L299.725 80.327L310.081 80.282L308.391 91.482H308.783L310.751 78.849H270.206Z" fill="url(#paint137_linear_1_4)"/>
<path d="M300.274 80.325L299.497 91.314H299.673L300.46 80.532L309.84 80.505L308.391 91.482L310.081 80.282L300.274 80.325Z" fill="url(#paint138_linear_1_4)"/>
<path d="M281.388 90.998V80.408L299.156 80.33L281.714 80.632L281.559 91.007L281.388 90.998Z" fill="url(#paint139_linear_1_4)"/>
<path d="M272.526 90.85L271.324 80.452L280.27 80.413L271.697 80.713L272.629 90.852L272.526 90.85Z" fill="url(#paint140_linear_1_4)"/>
<path opacity="0.55" d="M272.194 90.657L270.496 79.303L307.355 79.036L306.962 79.757L271.314 80.33L272.194 90.657Z" fill="url(#paint141_linear_1_4)"/>
<path d="M274.351 48.501L275.779 58.345L275.999 58.349L275.269 49.816L282.679 49.784H282.614L283.226 58.474H283.532V49.78L298.119 49.716V58.734H298.399L299.037 49.712L298.586 49.714L307.088 49.677L305.701 58.872H306.023L307.639 48.501H274.351Z" fill="url(#paint142_linear_1_4)"/>
<path d="M272.399 58.23L273.656 62.847H307.034L308.513 58.859L272.399 58.23Z" fill="url(#paint143_linear_1_4)"/>
<path opacity="0.55" d="M273.084 59.013L304.834 59.64L304.091 61.889L273.97 62.442L273.084 59.013Z" fill="url(#paint144_linear_1_4)"/>
<path d="M271.827 47.216L273.427 58.248L273.962 58.257L272.856 48.691L281.159 48.654L281.086 48.655L281.772 58.393H282.115V48.65L298.462 48.578V58.684H298.776L299.49 48.574L298.985 48.576L308.513 48.534L306.958 58.838H307.32L309.13 47.216H271.827Z" fill="url(#paint145_linear_1_4)"/>
<path d="M299.49 48.574L298.776 58.684H298.938L299.662 48.764L308.292 48.74L306.958 58.838L308.513 48.534L299.49 48.574Z" fill="url(#paint146_linear_1_4)"/>
<path d="M282.115 58.393V48.65L298.462 48.578L282.415 48.857L282.272 58.402L282.115 58.393Z" fill="url(#paint147_linear_1_4)"/>
<path d="M273.962 58.257L272.856 48.691L281.086 48.655L273.199 48.93L274.056 58.259L273.962 58.257Z" fill="url(#paint148_linear_1_4)"/>
<path opacity="0.55" d="M273.656 58.079L272.094 47.634L306.006 47.388L305.644 48.052L272.846 48.578L273.656 58.079Z" fill="url(#paint149_linear_1_4)"/>
<path opacity="0.31" d="M311.797 223.802H268.557L268.403 226.302L312.274 231.424L311.797 223.802Z" fill="#A2004F"/>
<path opacity="0.31" d="M271.276 179.439H309.019L309.366 184.981L271.21 180.508L271.276 179.439Z" fill="#A2004F"/>
<path opacity="0.31" d="M273.796 138.337L273.665 140.475L306.8 144L306.446 138.337H273.796Z" fill="#A2004F"/>
<path opacity="0.31" d="M303.784 95.839H276.402L276.283 97.785L304.063 100.295L303.784 95.839Z" fill="#A2004F"/>
<path opacity="0.31" d="M278.426 62.847L278.077 68.529L302.267 71.619L301.718 62.847H278.426Z" fill="#A2004F"/>
<path d="M612.664 302.764L627.224 274.518H729.224L744.14 303.633L612.664 302.764Z" fill="url(#paint150_linear_1_4)"/>
<path d="M777.621 307.953H580.034L579.046 302.542L778.545 303.861L777.621 307.953Z" fill="url(#paint151_linear_1_4)"/>
<path d="M580.034 303.076H620.775L621.381 307.333H580.645L580.034 303.076Z" fill="#FFFFA4"/>
<path d="M622.098 303.076H626.452L627.224 307.333H622.539L622.098 303.076Z" fill="#FFFFA4"/>
<path opacity="0.37" d="M765.77 304.234L764.838 307.176H777.621L778.426 304.387L765.77 304.234Z" fill="#860E37"/>
<path d="M584.35 307.953L591.231 319.043H760.874L767.361 307.953H584.35Z" fill="url(#paint152_radial_1_4)"/>
<path opacity="0.37" d="M763.52 314.52L587.072 312.34L584.35 307.953H767.361L763.52 314.52Z" fill="#860E37"/>
<path opacity="0.53" d="M588.721 313.498L624.661 314.52L627.224 318.335H591.231L588.721 313.498Z" fill="white"/>
<path d="M598.113 319.043L605.351 349.837H607.973L604.635 319.043H598.113Z" fill="url(#paint153_linear_1_4)"/>
<path d="M753.023 319.043L745.46 350.355L743.203 350.347L748.113 319.043H753.023Z" fill="url(#paint154_linear_1_4)"/>
<path d="M611.087 349.858L667.575 319.043H675.855L614.599 349.837L611.087 349.858Z" fill="url(#paint155_linear_1_4)"/>
<path d="M678.796 319.043H687.933L741.266 350.339L737.826 350.327L678.796 319.043Z" fill="url(#paint156_linear_1_4)"/>
<path d="M674.332 319.043L676.734 350.097L678.796 350.105L680.55 319.043H674.332Z" fill="url(#paint157_linear_1_4)"/>
<path d="M604.635 319.043L676.734 350.097L676.615 348.559L611.087 319.043H604.635Z" fill="url(#paint158_linear_1_4)"/>
<path d="M748.113 319.043L678.796 350.105L678.883 348.559L743.203 318.335L748.113 319.043Z" fill="url(#paint159_linear_1_4)"/>
<path opacity="0.53" d="M599.223 320.085H600.708L606.642 349.837L605.603 349.564L599.223 320.085Z" fill="white"/>
<path opacity="0.53" d="M668.435 320.085L612.664 349.837L670.155 320.085H668.435Z" fill="white"/>
<path d="M621.381 279.565L624.661 270.16L731.805 271.549L735.532 279.565H621.381Z" fill="url(#paint160_linear_1_4)"/>
<path opacity="0.53" d="M623.273 278.762L626.593 271.045L647.503 271.549L645.496 278.762H623.273Z" fill="white"/>
<path opacity="0.36" d="M715.568 272.167L717.288 278.762L621.557 279.06L621.381 279.565H733.095L730.084 272.167H715.568Z" fill="#093668"/>
<path opacity="0.37" d="M622.991 282.73L718.517 285.759L737.337 290.354L731.81 279.565H624.622L622.991 282.73Z" fill="#860E37"/>
<path d="M640.685 286.392H631.204V295.715H640.685V286.392Z" fill="url(#paint161_linear_1_4)"/>
<path d="M725.792 286.392H716.312V295.715H725.792V286.392Z" fill="url(#paint162_linear_1_4)"/>
<path d="M671.568 270.768L676.552 123.843L682.285 123.334L684.504 270.936L671.568 270.768Z" fill="url(#paint163_linear_1_4)"/>
<path d="M674.332 126.974L671.589 144.103H688.077L685.353 126.974H674.332Z" fill="url(#paint164_linear_1_4)"/>
<path opacity="0.53" d="M672.395 143.684L674.922 127.382H677.664L676.75 143.297L672.395 143.684Z" fill="white"/>
<path opacity="0.37" d="M675.546 153.498L682.796 157.293L682.597 144.103H675.865L675.546 153.498Z" fill="#860E37"/>
<path d="M672.234 268.726L676.249 154.538L678.041 155.8L676.679 268.726H672.234Z" fill="white"/>
<path d="M688.077 144.103L721.052 271.41L719.867 271.394L686.213 144.103H688.077Z" fill="url(#paint165_radial_1_4)"/>
<path d="M671.589 144.103L635.944 270.306L636.608 270.315L673.381 144.103H671.589Z" fill="url(#paint166_radial_1_4)"/>
<path d="M212.127 303.095L212.977 342.841L446.986 344.282L449.374 303.095H212.127Z" fill="url(#paint167_linear_1_4)"/>
<path d="M368.994 308.129H362.197V318.762H368.994V308.129Z" fill="url(#paint168_linear_1_4)"/>
<path d="M457.068 303.095H203.271L202.002 296.91L458.254 298.417L457.068 303.095Z" fill="url(#paint169_linear_1_4)"/>
<path d="M203.271 297.521H255.601L256.38 302.387H204.056L203.271 297.521Z" fill="#FFFFA4"/>
<path d="M257.3 297.521H262.894L263.885 302.387H257.867L257.3 297.521Z" fill="#FFFFA4"/>
<path opacity="0.37" d="M441.844 298.844L440.647 302.207H457.068L458.101 299.019L441.844 298.844Z" fill="#860E37"/>
<path d="M428.456 308.129H421.659V318.762H428.456V308.129Z" fill="url(#paint170_linear_1_4)"/>
<path d="M448.27 326.781H212.062L210.881 320.596L449.374 322.104L448.27 326.781Z" fill="url(#paint171_linear_1_4)"/>
<path d="M212.062 321.207H260.766L261.491 326.073H212.793L212.062 321.207Z" fill="#FFFFA4"/>
<path d="M262.347 321.207H267.553L268.476 326.073H262.874L262.347 321.207Z" fill="#FFFFA4"/>
<path opacity="0.37" d="M434.102 322.53L432.988 325.893H448.27L449.232 322.705L434.102 322.53Z" fill="#860E37"/>
<path opacity="0.57" d="M212.127 306.802L448.944 310.505L449.374 303.095H212.127V306.802Z" fill="#9D1146"/>
<path d="M224.518 308.129H217.721V318.762H224.518V308.129Z" fill="url(#paint172_linear_1_4)"/>
<path d="M278.022 308.129H271.225V318.762H278.022V308.129Z" fill="url(#paint173_linear_1_4)"/>
<path d="M290.094 308.129H283.297V318.762H290.094V308.129Z" fill="url(#paint174_linear_1_4)"/>
<path d="M401.669 329.495H394.872V340.128H401.669V329.495Z" fill="url(#paint175_linear_1_4)"/>
<path d="M249.982 329.495H243.185V340.128H249.982V329.495Z" fill="url(#paint176_linear_1_4)"/>
<path opacity="0.57" d="M448.27 326.781H212.634L212.706 330.16L447.687 332.191L448.27 326.781Z" fill="#9D1146"/>
<path d="M457.068 349.026H203.271L202.002 342.841L458.254 344.349L457.068 349.026Z" fill="url(#paint177_linear_1_4)"/>
<path d="M203.271 343.452H255.601L256.38 348.318H204.056L203.271 343.452Z" fill="#FFFFA4"/>
<path d="M257.3 343.452H262.894L263.885 348.318H257.867L257.3 343.452Z" fill="#FFFFA4"/>
<path opacity="0.37" d="M441.844 344.775L440.647 348.138H457.068L458.101 344.95L441.844 344.775Z" fill="#860E37"/>
<path d="M788.022 354.581L791.797 348.469L0 347.103V350.91L788.022 354.581Z" fill="url(#paint178_radial_1_4)"/>
<defs>
<radialGradient id="paint0_radial_1_4" cx="0" cy="0" r="1" gradientUnits="userSpaceOnUse" gradientTransform="translate(282.199 29.5203) scale(30.2176 23.6808)">
<stop stop-color="#3B6A89"/>
<stop offset="1" stop-color="#14133E"/>
</radialGradient>
<radialGradient id="paint1_radial_1_4" cx="0" cy="0" r="1" gradientUnits="userSpaceOnUse" gradientTransform="translate(231.911 2.9227) scale(30.2176 23.6808)">
<stop stop-color="#3B6A89"/>
<stop offset="1" stop-color="#14133E"/>
</radialGradient>
<linearGradient id="paint2_linear_1_4" x1="232.346" y1="7.61128" x2="232.346" y2="5.89869" gradientUnits="userSpaceOnUse">
<stop stop-color="#8EFFAB"/>
<stop offset="1" stop-color="#61C4BE"/>
</linearGradient>
<radialGradient id="paint3_radial_1_4" cx="0" cy="0" r="1" gradientUnits="userSpaceOnUse" gradientTransform="translate(301.312 42.6222) scale(30.2189 13.1608)">
<stop stop-color="#3B6A89"/>
<stop offset="1" stop-color="#14133E"/>
</radialGradient>
<linearGradient id="paint4_linear_1_4" x1="227.161" y1="348.063" x2="227.161" y2="111.548" gradientUnits="userSpaceOnUse">
<stop stop-color="#755E75"/>
<stop offset="1" stop-color="#8B839D"/>
</linearGradient>
<linearGradient id="paint5_linear_1_4" x1="488.271" y1="350.909" x2="488.271" y2="159.437" gradientUnits="userSpaceOnUse">
<stop stop-color="#755E75"/>
<stop offset="1" stop-color="#8B839D"/>
</linearGradient>
<linearGradient id="paint6_linear_1_4" x1="559.727" y1="213.133" x2="564.406" y2="213.133" gradientUnits="userSpaceOnUse">
<stop stop-color="#755E75"/>
<stop offset="1" stop-color="#8B839D"/>
</linearGradient>
<linearGradient id="paint7_linear_1_4" x1="618.789" y1="350.909" x2="618.789" y2="47.2161" gradientUnits="userSpaceOnUse">
<stop stop-color="#755E75"/>
<stop offset="1" stop-color="#8B839D"/>
</linearGradient>
<linearGradient id="paint8_linear_1_4" x1="263.38" y1="375.698" x2="392.191" y2="122.891" gradientUnits="userSpaceOnUse">
<stop stop-color="#755E75"/>
<stop offset="1" stop-color="#2D1D31"/>
</linearGradient>
<linearGradient id="paint9_linear_1_4" x1="569.333" y1="301.824" x2="643.217" y2="301.824" gradientUnits="userSpaceOnUse">
<stop stop-color="#F4EDA1"/>
<stop offset="1" stop-color="#F4AC88"/>
</linearGradient>
<linearGradient id="paint10_linear_1_4" x1="605.858" y1="255.179" x2="605.858" y2="243.868" gradientUnits="userSpaceOnUse">
<stop stop-color="#3B6A89"/>
<stop offset="1" stop-color="#14133E"/>
</linearGradient>
<linearGradient id="paint11_linear_1_4" x1="569.333" y1="272.942" x2="643.217" y2="272.942" gradientUnits="userSpaceOnUse">
<stop stop-color="#3B6A89"/>
<stop offset="1" stop-color="#14133E"/>
</linearGradient>
<linearGradient id="paint12_linear_1_4" x1="20.4275" y1="307.789" x2="85.3665" y2="307.789" gradientUnits="userSpaceOnUse">
<stop stop-color="#F4EDA1"/>
<stop offset="1" stop-color="#F4AC88"/>
</linearGradient>
<linearGradient id="paint13_linear_1_4" x1="52.5304" y1="266.791" x2="52.5304" y2="256.85" gradientUnits="userSpaceOnUse">
<stop stop-color="#3B6A89"/>
<stop offset="1" stop-color="#14133E"/>
</linearGradient>
<linearGradient id="paint14_linear_1_4" x1="20.4275" y1="282.404" x2="85.3665" y2="282.404" gradientUnits="userSpaceOnUse">
<stop stop-color="#3B6A89"/>
<stop offset="1" stop-color="#14133E"/>
</linearGradient>
<radialGradient id="paint15_radial_1_4" cx="0" cy="0" r="1" gradientUnits="userSpaceOnUse" gradientTransform="translate(510.071 28.1574) scale(30.2186 23.6808)">
<stop stop-color="#3B6A89"/>
<stop offset="1" stop-color="#14133E"/>
</radialGradient>
<linearGradient id="paint16_linear_1_4" x1="510.506" y1="43.4548" x2="510.506" y2="41.4423" gradientUnits="userSpaceOnUse">
<stop stop-color="#8EFFAB"/>
<stop offset="1" stop-color="#61C4BE"/>
</linearGradient>
<linearGradient id="paint17_linear_1_4" x1="510.506" y1="32.846" x2="510.506" y2="31.1333" gradientUnits="userSpaceOnUse">
<stop stop-color="#8EFFAB"/>
<stop offset="1" stop-color="#61C4BE"/>
</linearGradient>
<radialGradient id="paint18_radial_1_4" cx="0" cy="0" r="1" gradientUnits="userSpaceOnUse" gradientTransform="translate(544.883 11.4729) scale(30.2194 36.5203)">
<stop stop-color="#3B6A89"/>
<stop offset="1" stop-color="#14133E"/>
</radialGradient>
<linearGradient id="paint19_linear_1_4" x1="545.318" y1="35.0646" x2="545.318" y2="31.9608" gradientUnits="userSpaceOnUse">
<stop stop-color="#8EFFAB"/>
<stop offset="1" stop-color="#61C4BE"/>
</linearGradient>
<radialGradient id="paint20_radial_1_4" cx="0" cy="0" r="1" gradientUnits="userSpaceOnUse" gradientTransform="translate(528.218 150.941) scale(111.74 89.3993)">
<stop stop-color="#3B6A89"/>
<stop offset="1" stop-color="#14133E"/>
</radialGradient>
<linearGradient id="paint21_linear_1_4" x1="470.891" y1="312.088" x2="580.383" y2="312.088" gradientUnits="userSpaceOnUse">
<stop stop-color="#EF666D"/>
<stop offset="1" stop-color="#920025"/>
</linearGradient>
<linearGradient id="paint22_linear_1_4" x1="477.046" y1="315.469" x2="575.27" y2="315.469" gradientUnits="userSpaceOnUse">
<stop offset="0.0459" stop-color="#C0C9B9"/>
<stop offset="0.7653" stop-color="#8B9AAA"/>
<stop offset="1" stop-color="#AFD6C5"/>
</linearGradient>
<linearGradient id="paint23_linear_1_4" x1="528.218" y1="275.128" x2="528.218" y2="26.754" gradientUnits="userSpaceOnUse">
<stop stop-color="#958893"/>
<stop offset="1" stop-color="#D1D1DE"/>
</linearGradient>
<linearGradient id="paint24_linear_1_4" x1="508.744" y1="63.9362" x2="548.336" y2="63.9362" gradientUnits="userSpaceOnUse">
<stop stop-color="#EF666D"/>
<stop offset="1" stop-color="#920025"/>
</linearGradient>
<linearGradient id="paint25_linear_1_4" x1="155.799" y1="252.34" x2="220.45" y2="125.455" gradientUnits="userSpaceOnUse">
<stop offset="0.0459" stop-color="#C5A69D"/>
<stop offset="0.5351" stop-color="#6F617A"/>
<stop offset="1" stop-color="#C2929D"/>
</linearGradient>
<linearGradient id="paint26_linear_1_4" x1="147.365" y1="185.822" x2="185.853" y2="110.285" gradientUnits="userSpaceOnUse">
<stop/>
<stop offset="1" stop-color="#A9CFFF"/>
</linearGradient>
<linearGradient id="paint27_linear_1_4" x1="185.406" y1="266.334" x2="242.29" y2="154.692" gradientUnits="userSpaceOnUse">
<stop/>
<stop offset="1" stop-color="#A9CFFF"/>
</linearGradient>
<linearGradient id="paint28_linear_1_4" x1="113.858" y1="220.412" x2="147.476" y2="154.433" gradientUnits="userSpaceOnUse">
<stop offset="0.0459" stop-color="#C0C9B9"/>
<stop offset="0.5351" stop-color="#8B9AAA"/>
<stop offset="1" stop-color="#AFD6C5"/>
</linearGradient>
<linearGradient id="paint29_linear_1_4" x1="117.571" y1="184.817" x2="144.584" y2="184.817" gradientUnits="userSpaceOnUse">
<stop stop-color="#A9CFFF"/>
<stop offset="1"/>
</linearGradient>
<linearGradient id="paint30_linear_1_4" x1="132.519" y1="346.79" x2="132.519" y2="217.583" gradientUnits="userSpaceOnUse">
<stop stop-color="#D11D37"/>
<stop offset="1" stop-color="#FF7052"/>
</linearGradient>
<linearGradient id="paint31_linear_1_4" x1="124.116" y1="173.859" x2="135.818" y2="150.892" gradientUnits="userSpaceOnUse">
<stop offset="0.0459" stop-color="#C5A69D"/>
<stop offset="0.5351" stop-color="#6F617A"/>
<stop offset="1" stop-color="#C2929D"/>
</linearGradient>
<linearGradient id="paint32_linear_1_4" x1="112.187" y1="214.922" x2="151.345" y2="214.922" gradientUnits="userSpaceOnUse">
<stop stop-color="#755E75"/>
<stop offset="1" stop-color="#2D1D31"/>
</linearGradient>
<linearGradient id="paint33_linear_1_4" x1="129.811" y1="322.986" x2="129.811" y2="217.583" gradientUnits="userSpaceOnUse">
<stop stop-color="#A9CFFF"/>
<stop offset="1"/>
</linearGradient>
<linearGradient id="paint34_linear_1_4" x1="123.072" y1="364.185" x2="143.934" y2="323.24" gradientUnits="userSpaceOnUse">
<stop offset="0.0459" stop-color="#C0C9B9"/>
<stop offset="0.5351" stop-color="#8B9AAA"/>
<stop offset="1" stop-color="#AFD6C5"/>
</linearGradient>
<linearGradient id="paint35_linear_1_4" x1="235.492" y1="350.733" x2="235.492" y2="24.1204" gradientUnits="userSpaceOnUse">
<stop stop-color="#755E75"/>
<stop offset="1" stop-color="#2D1D31"/>
</linearGradient>
<linearGradient id="paint36_linear_1_4" x1="230.346" y1="71.3642" x2="248.357" y2="71.3642" gradientUnits="userSpaceOnUse">
<stop stop-color="#FF3E38"/>
<stop offset="0.5992" stop-color="#A10C37"/>
<stop offset="0.998" stop-color="#BA0C37"/>
</linearGradient>
<linearGradient id="paint37_linear_1_4" x1="229.98" y1="90.8101" x2="248.401" y2="90.8101" gradientUnits="userSpaceOnUse">
<stop stop-color="#FF3E38"/>
<stop offset="0.5992" stop-color="#A10C37"/>
<stop offset="0.998" stop-color="#BA0C37"/>
</linearGradient>
<linearGradient id="paint38_linear_1_4" x1="233.887" y1="349.133" x2="233.887" y2="25.5473" gradientUnits="userSpaceOnUse">
<stop/>
<stop offset="1" stop-color="#FFFFCE"/>
</linearGradient>
<linearGradient id="paint39_linear_1_4" x1="235.897" y1="40.7599" x2="242.088" y2="28.6082" gradientUnits="userSpaceOnUse">
<stop stop-color="#755E75"/>
<stop offset="1" stop-color="#2D1D31"/>
</linearGradient>
<linearGradient id="paint40_linear_1_4" x1="229.698" y1="34.6675" x2="249.775" y2="34.6675" gradientUnits="userSpaceOnUse">
<stop stop-color="#FFFFCE"/>
<stop offset="1"/>
</linearGradient>
<linearGradient id="paint41_linear_1_4" x1="408.436" y1="317.331" x2="480.507" y2="175.884" gradientUnits="userSpaceOnUse">
<stop offset="0.0459" stop-color="#C0C9B9"/>
<stop offset="0.5351" stop-color="#8B9AAA"/>
<stop offset="1" stop-color="#AFD6C5"/>
</linearGradient>
<linearGradient id="paint42_linear_1_4" x1="399.035" y1="243.179" x2="441.939" y2="158.974" gradientUnits="userSpaceOnUse">
<stop/>
<stop offset="1" stop-color="#A9CFFF"/>
</linearGradient>
<linearGradient id="paint43_linear_1_4" x1="441.441" y1="332.93" x2="504.853" y2="208.477" gradientUnits="userSpaceOnUse">
<stop/>
<stop offset="1" stop-color="#A9CFFF"/>
</linearGradient>
<linearGradient id="paint44_linear_1_4" x1="303.805" y1="275.894" x2="467.237" y2="275.894" gradientUnits="userSpaceOnUse">
<stop offset="0.0459" stop-color="#C0C9B9"/>
<stop offset="0.7653" stop-color="#8B9AAA"/>
<stop offset="1" stop-color="#AFD6C5"/>
</linearGradient>
<linearGradient id="paint45_linear_1_4" x1="312.48" y1="346.331" x2="457.614" y2="346.331" gradientUnits="userSpaceOnUse">
<stop stop-color="#FF3E38"/>
<stop offset="0.5992" stop-color="#A10C37"/>
<stop offset="0.998" stop-color="#BA0C37"/>
</linearGradient>
<linearGradient id="paint46_linear_1_4" x1="377.636" y1="349.048" x2="377.636" y2="204.165" gradientUnits="userSpaceOnUse">
<stop/>
<stop offset="1" stop-color="#A9CFFF"/>
</linearGradient>
<linearGradient id="paint47_linear_1_4" x1="340.094" y1="346.105" x2="340.094" y2="208.3" gradientUnits="userSpaceOnUse">
<stop/>
<stop offset="1" stop-color="#A9CFFF"/>
</linearGradient>
<linearGradient id="paint48_linear_1_4" x1="300.218" y1="211.852" x2="304.704" y2="211.852" gradientUnits="userSpaceOnUse">
<stop stop-color="#755E75"/>
<stop offset="1" stop-color="#2D1D31"/>
</linearGradient>
<linearGradient id="paint49_linear_1_4" x1="466.447" y1="213.133" x2="471.126" y2="213.133" gradientUnits="userSpaceOnUse">
<stop stop-color="#755E75"/>
<stop offset="1" stop-color="#2D1D31"/>
</linearGradient>
<linearGradient id="paint50_linear_1_4" x1="383.843" y1="218.62" x2="383.843" y2="209.002" gradientUnits="userSpaceOnUse">
<stop stop-color="#755E75"/>
<stop offset="1" stop-color="#2D1D31"/>
</linearGradient>
<linearGradient id="paint51_linear_1_4" x1="434.965" y1="218.97" x2="434.965" y2="209.502" gradientUnits="userSpaceOnUse">
<stop stop-color="#755E75"/>
<stop offset="1" stop-color="#2D1D31"/>
</linearGradient>
<linearGradient id="paint52_linear_1_4" x1="334.779" y1="215.48" x2="334.779" y2="208.293" gradientUnits="userSpaceOnUse">
<stop stop-color="#755E75"/>
<stop offset="1" stop-color="#2D1D31"/>
</linearGradient>
<linearGradient id="paint53_linear_1_4" x1="365.838" y1="243.17" x2="402.994" y2="170.246" gradientUnits="userSpaceOnUse">
<stop stop-color="#755E75"/>
<stop offset="1" stop-color="#2D1D31"/>
</linearGradient>
<linearGradient id="paint54_linear_1_4" x1="297.017" y1="206.832" x2="453.855" y2="206.832" gradientUnits="userSpaceOnUse">
<stop stop-color="#9097FF"/>
<stop offset="1"/>
</linearGradient>
<linearGradient id="paint55_linear_1_4" x1="371.268" y1="231.937" x2="402.712" y2="170.224" gradientUnits="userSpaceOnUse">
<stop stop-color="#755E75"/>
<stop offset="1" stop-color="#2D1D31"/>
</linearGradient>
<linearGradient id="paint56_linear_1_4" x1="374.704" y1="223.275" x2="401.327" y2="171.025" gradientUnits="userSpaceOnUse">
<stop stop-color="#755E75"/>
<stop offset="1" stop-color="#2D1D31"/>
</linearGradient>
<linearGradient id="paint57_linear_1_4" x1="476.956" y1="344.349" x2="481.28" y2="335.862" gradientUnits="userSpaceOnUse">
<stop offset="0.0459" stop-color="#C5A69D"/>
<stop offset="0.5351" stop-color="#6F617A"/>
<stop offset="1" stop-color="#C2929D"/>
</linearGradient>
<linearGradient id="paint58_linear_1_4" x1="480.842" y1="265.69" x2="485.166" y2="257.203" gradientUnits="userSpaceOnUse">
<stop offset="0.0459" stop-color="#C5A69D"/>
<stop offset="0.5351" stop-color="#6F617A"/>
<stop offset="1" stop-color="#C2929D"/>
</linearGradient>
<linearGradient id="paint59_linear_1_4" x1="482.144" y1="239.742" x2="486.664" y2="230.872" gradientUnits="userSpaceOnUse">
<stop offset="0.0459" stop-color="#C5A69D"/>
<stop offset="0.5351" stop-color="#6F617A"/>
<stop offset="1" stop-color="#C2929D"/>
</linearGradient>
<linearGradient id="paint60_linear_1_4" x1="481.817" y1="216.093" x2="488.105" y2="203.753" gradientUnits="userSpaceOnUse">
<stop offset="0.0459" stop-color="#C5A69D"/>
<stop offset="0.5351" stop-color="#6F617A"/>
<stop offset="1" stop-color="#C2929D"/>
</linearGradient>
<linearGradient id="paint61_linear_1_4" x1="477.931" y1="319.738" x2="482.58" y2="310.616" gradientUnits="userSpaceOnUse">
<stop offset="0.0459" stop-color="#C5A69D"/>
<stop offset="0.5351" stop-color="#6F617A"/>
<stop offset="1" stop-color="#C2929D"/>
</linearGradient>
<linearGradient id="paint62_linear_1_4" x1="479.315" y1="294.015" x2="483.963" y2="284.892" gradientUnits="userSpaceOnUse">
<stop offset="0.0459" stop-color="#C5A69D"/>
<stop offset="0.5351" stop-color="#6F617A"/>
<stop offset="1" stop-color="#C2929D"/>
</linearGradient>
<linearGradient id="paint63_linear_1_4" x1="473.58" y1="198.657" x2="481.981" y2="182.17" gradientUnits="userSpaceOnUse">
<stop offset="0.0459" stop-color="#C5A69D"/>
<stop offset="0.5351" stop-color="#6F617A"/>
<stop offset="1" stop-color="#C2929D"/>
</linearGradient>
<linearGradient id="paint64_linear_1_4" x1="455.983" y1="183.689" x2="465.189" y2="165.621" gradientUnits="userSpaceOnUse">
<stop offset="0.0459" stop-color="#C5A69D"/>
<stop offset="0.5351" stop-color="#6F617A"/>
<stop offset="1" stop-color="#C2929D"/>
</linearGradient>
<linearGradient id="paint65_linear_1_4" x1="429.11" y1="175.612" x2="436.686" y2="160.743" gradientUnits="userSpaceOnUse">
<stop offset="0.0459" stop-color="#C5A69D"/>
<stop offset="0.5351" stop-color="#6F617A"/>
<stop offset="1" stop-color="#C2929D"/>
</linearGradient>
<linearGradient id="paint66_linear_1_4" x1="406.022" y1="176.626" x2="411.023" y2="166.81" gradientUnits="userSpaceOnUse">
<stop offset="0.0459" stop-color="#C5A69D"/>
<stop offset="0.5351" stop-color="#6F617A"/>
<stop offset="1" stop-color="#C2929D"/>
</linearGradient>
<linearGradient id="paint67_linear_1_4" x1="387.1" y1="190.01" x2="388.963" y2="186.354" gradientUnits="userSpaceOnUse">
<stop offset="0.0459" stop-color="#C5A69D"/>
<stop offset="0.5351" stop-color="#6F617A"/>
<stop offset="1" stop-color="#C2929D"/>
</linearGradient>
<linearGradient id="paint68_linear_1_4" x1="383.109" y1="335.14" x2="446.059" y2="211.594" gradientUnits="userSpaceOnUse">
<stop stop-color="#755E75"/>
<stop offset="1" stop-color="#2D1D31"/>
</linearGradient>
<linearGradient id="paint69_linear_1_4" x1="193.67" y1="325.935" x2="140.067" y2="220.734" gradientUnits="userSpaceOnUse">
<stop offset="0.0459" stop-color="#C0C9B9"/>
<stop offset="0.5351" stop-color="#8B9AAA"/>
<stop offset="1" stop-color="#AFD6C5"/>
</linearGradient>
<linearGradient id="paint70_linear_1_4" x1="200.662" y1="270.784" x2="168.752" y2="208.157" gradientUnits="userSpaceOnUse">
<stop/>
<stop offset="1" stop-color="#A9CFFF"/>
</linearGradient>
<linearGradient id="paint71_linear_1_4" x1="169.123" y1="337.537" x2="121.96" y2="244.975" gradientUnits="userSpaceOnUse">
<stop/>
<stop offset="1" stop-color="#A9CFFF"/>
</linearGradient>
<linearGradient id="paint72_linear_1_4" x1="271.492" y1="295.115" x2="149.942" y2="295.115" gradientUnits="userSpaceOnUse">
<stop offset="0.0459" stop-color="#C0C9B9"/>
<stop offset="0.7812" stop-color="#8B9AAA"/>
<stop offset="1" stop-color="#AFD6C5"/>
</linearGradient>
<linearGradient id="paint73_linear_1_4" x1="210.717" y1="320.644" x2="210.717" y2="239.319" gradientUnits="userSpaceOnUse">
<stop stop-color="#A9CFFF"/>
<stop offset="1"/>
</linearGradient>
<linearGradient id="paint74_linear_1_4" x1="265.038" y1="347.504" x2="157.094" y2="347.504" gradientUnits="userSpaceOnUse">
<stop stop-color="#FF3E38"/>
<stop offset="0.5992" stop-color="#A10C37"/>
<stop offset="0.998" stop-color="#BA0C37"/>
</linearGradient>
<linearGradient id="paint75_linear_1_4" x1="274.158" y1="247.485" x2="270.822" y2="247.485" gradientUnits="userSpaceOnUse">
<stop stop-color="#755E75"/>
<stop offset="1" stop-color="#2D1D31"/>
</linearGradient>
<linearGradient id="paint76_linear_1_4" x1="150.525" y1="248.438" x2="147.044" y2="248.438" gradientUnits="userSpaceOnUse">
<stop stop-color="#755E75"/>
<stop offset="1" stop-color="#2D1D31"/>
</linearGradient>
<linearGradient id="paint77_linear_1_4" x1="211.961" y1="252.518" x2="211.961" y2="245.365" gradientUnits="userSpaceOnUse">
<stop stop-color="#755E75"/>
<stop offset="1" stop-color="#2D1D31"/>
</linearGradient>
<linearGradient id="paint78_linear_1_4" x1="173.939" y1="252.779" x2="173.939" y2="245.737" gradientUnits="userSpaceOnUse">
<stop stop-color="#755E75"/>
<stop offset="1" stop-color="#2D1D31"/>
</linearGradient>
<linearGradient id="paint79_linear_1_4" x1="248.453" y1="250.183" x2="248.453" y2="244.838" gradientUnits="userSpaceOnUse">
<stop stop-color="#755E75"/>
<stop offset="1" stop-color="#2D1D31"/>
</linearGradient>
<linearGradient id="paint80_linear_1_4" x1="225.353" y1="270.777" x2="197.718" y2="216.54" gradientUnits="userSpaceOnUse">
<stop stop-color="#755E75"/>
<stop offset="1" stop-color="#2D1D31"/>
</linearGradient>
<linearGradient id="paint81_linear_1_4" x1="276.539" y1="243.751" x2="159.889" y2="243.751" gradientUnits="userSpaceOnUse">
<stop stop-color="#9097FF"/>
<stop offset="1"/>
</linearGradient>
<linearGradient id="paint82_linear_1_4" x1="212.508" y1="341.35" x2="165.688" y2="249.462" gradientUnits="userSpaceOnUse">
<stop stop-color="#755E75"/>
<stop offset="1" stop-color="#2D1D31"/>
</linearGradient>
<linearGradient id="paint83_linear_1_4" x1="221.314" y1="262.423" x2="197.927" y2="216.524" gradientUnits="userSpaceOnUse">
<stop stop-color="#755E75"/>
<stop offset="1" stop-color="#2D1D31"/>
</linearGradient>
<linearGradient id="paint84_linear_1_4" x1="218.758" y1="255.98" x2="198.958" y2="217.119" gradientUnits="userSpaceOnUse">
<stop stop-color="#755E75"/>
<stop offset="1" stop-color="#2D1D31"/>
</linearGradient>
<linearGradient id="paint85_linear_1_4" x1="142.708" y1="346.03" x2="139.492" y2="339.718" gradientUnits="userSpaceOnUse">
<stop offset="0.0459" stop-color="#C5A69D"/>
<stop offset="0.5351" stop-color="#6F617A"/>
<stop offset="1" stop-color="#C2929D"/>
</linearGradient>
<linearGradient id="paint86_linear_1_4" x1="139.818" y1="287.527" x2="136.602" y2="281.215" gradientUnits="userSpaceOnUse">
<stop offset="0.0459" stop-color="#C5A69D"/>
<stop offset="0.5351" stop-color="#6F617A"/>
<stop offset="1" stop-color="#C2929D"/>
</linearGradient>
<linearGradient id="paint87_linear_1_4" x1="138.849" y1="268.228" x2="135.488" y2="261.631" gradientUnits="userSpaceOnUse">
<stop offset="0.0459" stop-color="#C5A69D"/>
<stop offset="0.5351" stop-color="#6F617A"/>
<stop offset="1" stop-color="#C2929D"/>
</linearGradient>
<linearGradient id="paint88_linear_1_4" x1="139.093" y1="250.639" x2="134.416" y2="241.461" gradientUnits="userSpaceOnUse">
<stop offset="0.0459" stop-color="#C5A69D"/>
<stop offset="0.5351" stop-color="#6F617A"/>
<stop offset="1" stop-color="#C2929D"/>
</linearGradient>
<linearGradient id="paint89_linear_1_4" x1="141.983" y1="327.726" x2="138.526" y2="320.94" gradientUnits="userSpaceOnUse">
<stop offset="0.0459" stop-color="#C5A69D"/>
<stop offset="0.5351" stop-color="#6F617A"/>
<stop offset="1" stop-color="#C2929D"/>
</linearGradient>
<linearGradient id="paint90_linear_1_4" x1="140.954" y1="308.594" x2="137.497" y2="301.809" gradientUnits="userSpaceOnUse">
<stop offset="0.0459" stop-color="#C5A69D"/>
<stop offset="0.5351" stop-color="#6F617A"/>
<stop offset="1" stop-color="#C2929D"/>
</linearGradient>
<linearGradient id="paint91_linear_1_4" x1="145.219" y1="237.671" x2="138.971" y2="225.409" gradientUnits="userSpaceOnUse">
<stop offset="0.0459" stop-color="#C5A69D"/>
<stop offset="0.5351" stop-color="#6F617A"/>
<stop offset="1" stop-color="#C2929D"/>
</linearGradient>
<linearGradient id="paint92_linear_1_4" x1="158.319" y1="226.532" x2="151.664" y2="213.471" gradientUnits="userSpaceOnUse">
<stop offset="0.0459" stop-color="#C5A69D"/>
<stop offset="0.5351" stop-color="#6F617A"/>
<stop offset="1" stop-color="#C2929D"/>
</linearGradient>
<linearGradient id="paint93_linear_1_4" x1="178.294" y1="220.531" x2="172.659" y2="209.472" gradientUnits="userSpaceOnUse">
<stop offset="0.0459" stop-color="#C5A69D"/>
<stop offset="0.5351" stop-color="#6F617A"/>
<stop offset="1" stop-color="#C2929D"/>
</linearGradient>
<linearGradient id="paint94_linear_1_4" x1="195.466" y1="221.286" x2="191.746" y2="213.985" gradientUnits="userSpaceOnUse">
<stop offset="0.0459" stop-color="#C5A69D"/>
<stop offset="0.5351" stop-color="#6F617A"/>
<stop offset="1" stop-color="#C2929D"/>
</linearGradient>
<linearGradient id="paint95_linear_1_4" x1="209.539" y1="231.24" x2="208.154" y2="228.52" gradientUnits="userSpaceOnUse">
<stop offset="0.0459" stop-color="#C5A69D"/>
<stop offset="0.5351" stop-color="#6F617A"/>
<stop offset="1" stop-color="#C2929D"/>
</linearGradient>
<linearGradient id="paint96_linear_1_4" x1="269.77" y1="169.481" x2="312.513" y2="169.481" gradientUnits="userSpaceOnUse">
<stop stop-color="#755E75"/>
<stop offset="1" stop-color="#2D1D31"/>
</linearGradient>
<linearGradient id="paint97_linear_1_4" x1="271.426" y1="128.38" x2="310.751" y2="128.38" gradientUnits="userSpaceOnUse">
<stop stop-color="#755E75"/>
<stop offset="1" stop-color="#2D1D31"/>
</linearGradient>
<linearGradient id="paint98_linear_1_4" x1="272.95" y1="85.8816" x2="309.13" y2="85.8816" gradientUnits="userSpaceOnUse">
<stop stop-color="#755E75"/>
<stop offset="1" stop-color="#2D1D31"/>
</linearGradient>
<linearGradient id="paint99_linear_1_4" x1="266.345" y1="213.845" x2="316.158" y2="213.845" gradientUnits="userSpaceOnUse">
<stop stop-color="#755E75"/>
<stop offset="1" stop-color="#2D1D31"/>
</linearGradient>
<linearGradient id="paint100_linear_1_4" x1="308.788" y1="199.062" x2="329.706" y2="199.062" gradientUnits="userSpaceOnUse">
<stop stop-color="#755E75"/>
<stop offset="1" stop-color="#2D1D31"/>
</linearGradient>
<linearGradient id="paint101_linear_1_4" x1="262.353" y1="265.82" x2="320.405" y2="265.82" gradientUnits="userSpaceOnUse">
<stop stop-color="#755E75"/>
<stop offset="1" stop-color="#2D1D31"/>
</linearGradient>
<linearGradient id="paint102_linear_1_4" x1="290.259" y1="350.907" x2="290.259" y2="62.8473" gradientUnits="userSpaceOnUse">
<stop stop-color="#F4AC88"/>
<stop offset="1" stop-color="#F4EDA1"/>
</linearGradient>
<linearGradient id="paint103_linear_1_4" x1="281.713" y1="349.048" x2="281.713" y2="64.5768" gradientUnits="userSpaceOnUse">
<stop/>
<stop offset="1" stop-color="#A9CFFF"/>
</linearGradient>
<linearGradient id="paint104_linear_1_4" x1="294.056" y1="202.121" x2="277.02" y2="63.0194" gradientUnits="userSpaceOnUse">
<stop stop-color="#A9CFFF"/>
<stop offset="1"/>
</linearGradient>
<linearGradient id="paint105_linear_1_4" x1="284.842" y1="349.983" x2="284.842" y2="66.1576" gradientUnits="userSpaceOnUse">
<stop/>
<stop offset="1" stop-color="#A9CFFF"/>
</linearGradient>
<linearGradient id="paint106_linear_1_4" x1="281.484" y1="364.463" x2="299.944" y2="328.234" gradientUnits="userSpaceOnUse">
<stop offset="0.0459" stop-color="#C0C9B9"/>
<stop offset="0.5351" stop-color="#8B9AAA"/>
<stop offset="1" stop-color="#AFD6C5"/>
</linearGradient>
<linearGradient id="paint107_linear_1_4" x1="282.508" y1="286.665" x2="296.791" y2="258.633" gradientUnits="userSpaceOnUse">
<stop stop-color="#755E75"/>
<stop offset="1" stop-color="#2D1D31"/>
</linearGradient>
<linearGradient id="paint108_linear_1_4" x1="260.144" y1="273.473" x2="315.514" y2="273.473" gradientUnits="userSpaceOnUse">
<stop stop-color="#9097FF"/>
<stop offset="1"/>
</linearGradient>
<linearGradient id="paint109_linear_1_4" x1="257.951" y1="265.103" x2="323.006" y2="265.103" gradientUnits="userSpaceOnUse">
<stop offset="0.0459" stop-color="#C0C9B9"/>
<stop offset="0.5351" stop-color="#8B9AAA"/>
<stop offset="1" stop-color="#AFD6C5"/>
</linearGradient>
<linearGradient id="paint110_linear_1_4" x1="308.919" y1="273.275" x2="316.882" y2="257.647" gradientUnits="userSpaceOnUse">
<stop stop-color="#755E75"/>
<stop offset="1" stop-color="#2D1D31"/>
</linearGradient>
<linearGradient id="paint111_linear_1_4" x1="282.91" y1="274.511" x2="293.101" y2="254.51" gradientUnits="userSpaceOnUse">
<stop stop-color="#755E75"/>
<stop offset="1" stop-color="#2D1D31"/>
</linearGradient>
<linearGradient id="paint112_linear_1_4" x1="261.626" y1="270.764" x2="268.409" y2="257.452" gradientUnits="userSpaceOnUse">
<stop stop-color="#755E75"/>
<stop offset="1" stop-color="#2D1D31"/>
</linearGradient>
<linearGradient id="paint113_linear_1_4" x1="258.416" y1="264.784" x2="317.557" y2="264.784" gradientUnits="userSpaceOnUse">
<stop stop-color="#9097FF"/>
<stop offset="1"/>
</linearGradient>
<linearGradient id="paint114_linear_1_4" x1="283.371" y1="233.008" x2="295.876" y2="208.466" gradientUnits="userSpaceOnUse">
<stop stop-color="#755E75"/>
<stop offset="1" stop-color="#2D1D31"/>
</linearGradient>
<linearGradient id="paint115_linear_1_4" x1="264.449" y1="221.498" x2="311.961" y2="221.498" gradientUnits="userSpaceOnUse">
<stop stop-color="#9097FF"/>
<stop offset="1"/>
</linearGradient>
<linearGradient id="paint116_linear_1_4" x1="262.567" y1="213.129" x2="318.39" y2="213.129" gradientUnits="userSpaceOnUse">
<stop offset="0.0459" stop-color="#C0C9B9"/>
<stop offset="0.5351" stop-color="#8B9AAA"/>
<stop offset="1" stop-color="#AFD6C5"/>
</linearGradient>
<linearGradient id="paint117_linear_1_4" x1="305.991" y1="220.855" x2="313.457" y2="206.202" gradientUnits="userSpaceOnUse">
<stop stop-color="#755E75"/>
<stop offset="1" stop-color="#2D1D31"/>
</linearGradient>
<linearGradient id="paint118_linear_1_4" x1="283.374" y1="221.718" x2="292.731" y2="203.353" gradientUnits="userSpaceOnUse">
<stop stop-color="#755E75"/>
<stop offset="1" stop-color="#2D1D31"/>
</linearGradient>
<linearGradient id="paint119_linear_1_4" x1="265.123" y1="218.487" x2="271.543" y2="205.889" gradientUnits="userSpaceOnUse">
<stop stop-color="#755E75"/>
<stop offset="1" stop-color="#2D1D31"/>
</linearGradient>
<linearGradient id="paint120_linear_1_4" x1="262.967" y1="212.81" x2="313.714" y2="212.81" gradientUnits="userSpaceOnUse">
<stop stop-color="#9097FF"/>
<stop offset="1"/>
</linearGradient>
<linearGradient id="paint121_linear_1_4" x1="284.234" y1="187.264" x2="295.213" y2="165.717" gradientUnits="userSpaceOnUse">
<stop stop-color="#755E75"/>
<stop offset="1" stop-color="#2D1D31"/>
</linearGradient>
<linearGradient id="paint122_linear_1_4" x1="268.143" y1="177.135" x2="308.912" y2="177.135" gradientUnits="userSpaceOnUse">
<stop stop-color="#9097FF"/>
<stop offset="1"/>
</linearGradient>
<linearGradient id="paint123_linear_1_4" x1="266.529" y1="168.765" x2="314.428" y2="168.765" gradientUnits="userSpaceOnUse">
<stop offset="0.0459" stop-color="#C0C9B9"/>
<stop offset="0.5351" stop-color="#8B9AAA"/>
<stop offset="1" stop-color="#AFD6C5"/>
</linearGradient>
<linearGradient id="paint124_linear_1_4" x1="303.479" y1="176.109" x2="310.519" y2="162.293" gradientUnits="userSpaceOnUse">
<stop stop-color="#755E75"/>
<stop offset="1" stop-color="#2D1D31"/>
</linearGradient>
<linearGradient id="paint125_linear_1_4" x1="283.772" y1="176.652" x2="292.413" y2="159.692" gradientUnits="userSpaceOnUse">
<stop stop-color="#755E75"/>
<stop offset="1" stop-color="#2D1D31"/>
</linearGradient>
<linearGradient id="paint126_linear_1_4" x1="268.124" y1="173.866" x2="274.231" y2="161.879" gradientUnits="userSpaceOnUse">
<stop stop-color="#755E75"/>
<stop offset="1" stop-color="#2D1D31"/>
</linearGradient>
<linearGradient id="paint127_linear_1_4" x1="266.871" y1="168.446" x2="310.416" y2="168.446" gradientUnits="userSpaceOnUse">
<stop stop-color="#9097FF"/>
<stop offset="1"/>
</linearGradient>
<linearGradient id="paint128_linear_1_4" x1="284.653" y1="145.495" x2="294.893" y2="125.396" gradientUnits="userSpaceOnUse">
<stop stop-color="#755E75"/>
<stop offset="1" stop-color="#2D1D31"/>
</linearGradient>
<linearGradient id="paint129_linear_1_4" x1="269.929" y1="136.033" x2="307.438" y2="136.033" gradientUnits="userSpaceOnUse">
<stop stop-color="#9097FF"/>
<stop offset="1"/>
</linearGradient>
<linearGradient id="paint130_linear_1_4" x1="268.444" y1="127.663" x2="312.513" y2="127.663" gradientUnits="userSpaceOnUse">
<stop offset="0.0459" stop-color="#C0C9B9"/>
<stop offset="0.5351" stop-color="#8B9AAA"/>
<stop offset="1" stop-color="#AFD6C5"/>
</linearGradient>
<linearGradient id="paint131_linear_1_4" x1="302.264" y1="134.823" x2="309.098" y2="121.411" gradientUnits="userSpaceOnUse">
<stop stop-color="#755E75"/>
<stop offset="1" stop-color="#2D1D31"/>
</linearGradient>
<linearGradient id="paint132_linear_1_4" x1="283.964" y1="135.211" x2="292.26" y2="118.93" gradientUnits="userSpaceOnUse">
<stop stop-color="#755E75"/>
<stop offset="1" stop-color="#2D1D31"/>
</linearGradient>
<linearGradient id="paint133_linear_1_4" x1="269.574" y1="132.639" x2="275.531" y2="120.948" gradientUnits="userSpaceOnUse">
<stop stop-color="#755E75"/>
<stop offset="1" stop-color="#2D1D31"/>
</linearGradient>
<linearGradient id="paint134_linear_1_4" x1="268.759" y1="127.344" x2="308.822" y2="127.344" gradientUnits="userSpaceOnUse">
<stop stop-color="#9097FF"/>
<stop offset="1"/>
</linearGradient>
<linearGradient id="paint135_linear_1_4" x1="285.037" y1="102.383" x2="294.6" y2="83.6162" gradientUnits="userSpaceOnUse">
<stop stop-color="#755E75"/>
<stop offset="1" stop-color="#2D1D31"/>
</linearGradient>
<linearGradient id="paint136_linear_1_4" x1="271.573" y1="93.535" x2="306.082" y2="93.535" gradientUnits="userSpaceOnUse">
<stop stop-color="#9097FF"/>
<stop offset="1"/>
</linearGradient>
<linearGradient id="paint137_linear_1_4" x1="270.206" y1="85.1654" x2="310.751" y2="85.1654" gradientUnits="userSpaceOnUse">
<stop offset="0.0459" stop-color="#C0C9B9"/>
<stop offset="0.5351" stop-color="#8B9AAA"/>
<stop offset="1" stop-color="#AFD6C5"/>
</linearGradient>
<linearGradient id="paint138_linear_1_4" x1="301.147" y1="92.1546" x2="307.791" y2="79.1151" gradientUnits="userSpaceOnUse">
<stop stop-color="#755E75"/>
<stop offset="1" stop-color="#2D1D31"/>
</linearGradient>
<linearGradient id="paint139_linear_1_4" x1="284.142" y1="92.4006" x2="292.119" y2="76.7441" gradientUnits="userSpaceOnUse">
<stop stop-color="#755E75"/>
<stop offset="1" stop-color="#2D1D31"/>
</linearGradient>
<linearGradient id="paint140_linear_1_4" x1="270.909" y1="90.0259" x2="276.727" y2="78.6074" gradientUnits="userSpaceOnUse">
<stop stop-color="#755E75"/>
<stop offset="1" stop-color="#2D1D31"/>
</linearGradient>
<linearGradient id="paint141_linear_1_4" x1="270.496" y1="84.8464" x2="307.355" y2="84.8464" gradientUnits="userSpaceOnUse">
<stop stop-color="#9097FF"/>
<stop offset="1"/>
</linearGradient>
<linearGradient id="paint142_linear_1_4" x1="274.351" y1="53.6861" x2="307.639" y2="53.6861" gradientUnits="userSpaceOnUse">
<stop stop-color="#755E75"/>
<stop offset="1" stop-color="#2D1D31"/>
</linearGradient>
<linearGradient id="paint143_linear_1_4" x1="285.472" y1="68.8681" x2="294.27" y2="51.6019" gradientUnits="userSpaceOnUse">
<stop stop-color="#755E75"/>
<stop offset="1" stop-color="#2D1D31"/>
</linearGradient>
<linearGradient id="paint144_linear_1_4" x1="273.084" y1="60.7275" x2="304.834" y2="60.7275" gradientUnits="userSpaceOnUse">
<stop stop-color="#9097FF"/>
<stop offset="1"/>
</linearGradient>
<linearGradient id="paint145_linear_1_4" x1="271.827" y1="53.0272" x2="309.13" y2="53.0272" gradientUnits="userSpaceOnUse">
<stop offset="0.0459" stop-color="#C0C9B9"/>
<stop offset="0.5351" stop-color="#8B9AAA"/>
<stop offset="1" stop-color="#AFD6C5"/>
</linearGradient>
<linearGradient id="paint146_linear_1_4" x1="300.294" y1="59.4575" x2="306.407" y2="47.4607" gradientUnits="userSpaceOnUse">
<stop stop-color="#755E75"/>
<stop offset="1" stop-color="#2D1D31"/>
</linearGradient>
<linearGradient id="paint147_linear_1_4" x1="284.648" y1="59.6839" x2="291.988" y2="45.2792" gradientUnits="userSpaceOnUse">
<stop stop-color="#755E75"/>
<stop offset="1" stop-color="#2D1D31"/>
</linearGradient>
<linearGradient id="paint148_linear_1_4" x1="272.474" y1="57.4989" x2="277.827" y2="46.9935" gradientUnits="userSpaceOnUse">
<stop stop-color="#755E75"/>
<stop offset="1" stop-color="#2D1D31"/>
</linearGradient>
<linearGradient id="paint149_linear_1_4" x1="272.094" y1="52.7337" x2="306.006" y2="52.7337" gradientUnits="userSpaceOnUse">
<stop stop-color="#9097FF"/>
<stop offset="1"/>
</linearGradient>
<linearGradient id="paint150_linear_1_4" x1="612.664" y1="289.076" x2="744.14" y2="289.076" gradientUnits="userSpaceOnUse">
<stop stop-color="#D11D37"/>
<stop offset="1" stop-color="#FF7052"/>
</linearGradient>
<linearGradient id="paint151_linear_1_4" x1="579.046" y1="305.247" x2="778.545" y2="305.247" gradientUnits="userSpaceOnUse">
<stop offset="0.0459" stop-color="#C0C9B9"/>
<stop offset="0.7653" stop-color="#8B9AAA"/>
<stop offset="1" stop-color="#AFD6C5"/>
</linearGradient>
<radialGradient id="paint152_radial_1_4" cx="0" cy="0" r="1" gradientUnits="userSpaceOnUse" gradientTransform="translate(599.197 308.953) scale(135.359 108.296)">
<stop stop-color="#3B6A89"/>
<stop offset="1" stop-color="#14133E"/>
</radialGradient>
<linearGradient id="paint153_linear_1_4" x1="603.043" y1="349.837" x2="603.043" y2="319.043" gradientUnits="userSpaceOnUse">
<stop stop-color="#3B6A89"/>
<stop offset="1" stop-color="#14133E"/>
</linearGradient>
<linearGradient id="paint154_linear_1_4" x1="748.113" y1="350.355" x2="748.113" y2="319.043" gradientUnits="userSpaceOnUse">
<stop stop-color="#3B6A89"/>
<stop offset="1" stop-color="#14133E"/>
</linearGradient>
<linearGradient id="paint155_linear_1_4" x1="643.471" y1="349.858" x2="643.471" y2="319.043" gradientUnits="userSpaceOnUse">
<stop stop-color="#3B6A89"/>
<stop offset="1" stop-color="#14133E"/>
</linearGradient>
<linearGradient id="paint156_linear_1_4" x1="710.031" y1="350.339" x2="710.031" y2="319.043" gradientUnits="userSpaceOnUse">
<stop stop-color="#3B6A89"/>
<stop offset="1" stop-color="#14133E"/>
</linearGradient>
<linearGradient id="paint157_linear_1_4" x1="677.441" y1="350.105" x2="677.441" y2="319.043" gradientUnits="userSpaceOnUse">
<stop stop-color="#3B6A89"/>
<stop offset="1" stop-color="#14133E"/>
</linearGradient>
<linearGradient id="paint158_linear_1_4" x1="640.685" y1="350.097" x2="640.685" y2="319.043" gradientUnits="userSpaceOnUse">
<stop stop-color="#3B6A89"/>
<stop offset="1" stop-color="#14133E"/>
</linearGradient>
<linearGradient id="paint159_linear_1_4" x1="713.454" y1="350.105" x2="713.454" y2="318.335" gradientUnits="userSpaceOnUse">
<stop stop-color="#3B6A89"/>
<stop offset="1" stop-color="#14133E"/>
</linearGradient>
<linearGradient id="paint160_linear_1_4" x1="621.381" y1="274.863" x2="735.532" y2="274.863" gradientUnits="userSpaceOnUse">
<stop offset="0.0459" stop-color="#C0C9B9"/>
<stop offset="0.7653" stop-color="#8B9AAA"/>
<stop offset="1" stop-color="#AFD6C5"/>
</linearGradient>
<linearGradient id="paint161_linear_1_4" x1="635.944" y1="295.715" x2="635.944" y2="286.392" gradientUnits="userSpaceOnUse">
<stop stop-color="#8EFFAB"/>
<stop offset="1" stop-color="#61C4BE"/>
</linearGradient>
<linearGradient id="paint162_linear_1_4" x1="721.052" y1="295.715" x2="721.052" y2="286.392" gradientUnits="userSpaceOnUse">
<stop stop-color="#8EFFAB"/>
<stop offset="1" stop-color="#61C4BE"/>
</linearGradient>
<linearGradient id="paint163_linear_1_4" x1="678.036" y1="270.936" x2="678.036" y2="123.334" gradientUnits="userSpaceOnUse">
<stop stop-color="#755E75"/>
<stop offset="1" stop-color="#2D1D31"/>
</linearGradient>
<linearGradient id="paint164_linear_1_4" x1="671.589" y1="135.539" x2="688.077" y2="135.539" gradientUnits="userSpaceOnUse">
<stop stop-color="#3B6A89"/>
<stop offset="1" stop-color="#14133E"/>
</linearGradient>
<radialGradient id="paint165_radial_1_4" cx="0" cy="0" r="1" gradientUnits="userSpaceOnUse" gradientTransform="translate(689.039 155.583) scale(119.011 95.2167)">
<stop stop-color="#14133E"/>
<stop offset="1" stop-color="#3B6A89"/>
</radialGradient>
<radialGradient id="paint166_radial_1_4" cx="0" cy="0" r="1" gradientUnits="userSpaceOnUse" gradientTransform="translate(638.982 155.484) scale(118.467 94.7814)">
<stop stop-color="#14133E"/>
<stop offset="1" stop-color="#3B6A89"/>
</radialGradient>
<linearGradient id="paint167_linear_1_4" x1="212.127" y1="323.689" x2="449.374" y2="323.689" gradientUnits="userSpaceOnUse">
<stop stop-color="#FF7052"/>
<stop offset="1" stop-color="#D11D37"/>
</linearGradient>
<linearGradient id="paint168_linear_1_4" x1="365.596" y1="318.762" x2="365.596" y2="308.129" gradientUnits="userSpaceOnUse">
<stop stop-color="#8EFFAB"/>
<stop offset="1" stop-color="#61C4BE"/>
</linearGradient>
<linearGradient id="paint169_linear_1_4" x1="202.002" y1="300.002" x2="458.254" y2="300.002" gradientUnits="userSpaceOnUse">
<stop offset="0.002" stop-color="#BA0C37"/>
<stop offset="0.4008" stop-color="#A10C37"/>
<stop offset="1" stop-color="#FF3E38"/>
</linearGradient>
<linearGradient id="paint170_linear_1_4" x1="425.058" y1="318.762" x2="425.058" y2="308.129" gradientUnits="userSpaceOnUse">
<stop stop-color="#8EFFAB"/>
<stop offset="1" stop-color="#61C4BE"/>
</linearGradient>
<linearGradient id="paint171_linear_1_4" x1="210.881" y1="323.689" x2="449.374" y2="323.689" gradientUnits="userSpaceOnUse">
<stop offset="0.002" stop-color="#BA0C37"/>
<stop offset="0.4008" stop-color="#A10C37"/>
<stop offset="1" stop-color="#FF3E38"/>
</linearGradient>
<linearGradient id="paint172_linear_1_4" x1="221.119" y1="318.762" x2="221.119" y2="308.129" gradientUnits="userSpaceOnUse">
<stop stop-color="#8EFFAB"/>
<stop offset="1" stop-color="#61C4BE"/>
</linearGradient>
<linearGradient id="paint173_linear_1_4" x1="274.624" y1="318.762" x2="274.624" y2="308.129" gradientUnits="userSpaceOnUse">
<stop stop-color="#8EFFAB"/>
<stop offset="1" stop-color="#61C4BE"/>
</linearGradient>
<linearGradient id="paint174_linear_1_4" x1="286.695" y1="318.762" x2="286.695" y2="308.129" gradientUnits="userSpaceOnUse">
<stop stop-color="#8EFFAB"/>
<stop offset="1" stop-color="#61C4BE"/>
</linearGradient>
<linearGradient id="paint175_linear_1_4" x1="398.27" y1="340.128" x2="398.27" y2="329.495" gradientUnits="userSpaceOnUse">
<stop stop-color="#8EFFAB"/>
<stop offset="1" stop-color="#61C4BE"/>
</linearGradient>
<linearGradient id="paint176_linear_1_4" x1="246.584" y1="340.128" x2="246.584" y2="329.495" gradientUnits="userSpaceOnUse">
<stop stop-color="#8EFFAB"/>
<stop offset="1" stop-color="#61C4BE"/>
</linearGradient>
<linearGradient id="paint177_linear_1_4" x1="202.002" y1="345.934" x2="458.254" y2="345.934" gradientUnits="userSpaceOnUse">
<stop offset="0.002" stop-color="#BA0C37"/>
<stop offset="0.4008" stop-color="#A10C37"/>
<stop offset="1" stop-color="#FF3E38"/>
</linearGradient>
<radialGradient id="paint178_radial_1_4" cx="0" cy="0" r="1" gradientUnits="userSpaceOnUse" gradientTransform="translate(64.2361 347.778) scale(584.026 513.52)">
<stop stop-color="#3B6A89"/>
<stop offset="1" stop-color="#14133E"/>
</radialGradient>
</defs>
</svg>
